<?xml version="1.0" encoding="utf-8" standalone="yes"?>
<!DOCTYPE svg PUBLIC "-//W3C//DTD SVG 1.1//EN" "http://www.w3.org/Graphics/SVG/1.1/DTD/svg11.dtd">
<svg width="672" height="382" viewBox="0 0 672 382" style="fill:none;stroke:none;fill-rule:evenodd;clip-rule:evenodd;stroke-linecap:round;stroke-linejoin:round;stroke-miterlimit:1.5;" version="1.1" xmlns="http://www.w3.org/2000/svg" xmlns:xlink="http://www.w3.org/1999/xlink"><style class="text-font-style fontImports" data-font-family="Shantell Sans">@import url('https://fonts.googleapis.com/css2?family=Shantell+Sans:wght@300..800&amp;display=block');</style><g id="items" style="isolation: isolate"><g id="blend" style="mix-blend-mode: normal"><g id="g-root-sy_0_cu-plate_4j7aanixhuyo-fill" data-item-order="-67386" transform="translate(14, 122)"><g id="sy_0_cu-plate_4j7aanixhuyo-fill" stroke="none" fill="#2c2c2c"><g><path d="M 634 10L 10 10L 10 22L 634 22L 634 10Z"></path></g></g></g><g id="g-root-sy_0_cu-triangle_1q8utwfixhwch-fill" data-item-order="-67384" transform="translate(278.6169128417969, 135.2362060546875)"><g id="sy_0_cu-triangle_1q8utwfixhwch-fill" stroke="none" fill="#2c2c2c"><g><path d="M 56.489087 10.552763C 56.857087 9.815763 57.909087 9.815763 58.277087 10.552763L 104.659087 103.316763C 104.992087 103.981763 104.508087 104.763763 103.765087 104.763763L 11.001087 104.763763C 10.258087 104.763763 9.774087 103.981763 10.107087 103.316763L 56.489087 10.552763Z"></path></g></g></g><g id="g-root-ic_carp_1hd7tnjixhx56-fill" data-item-order="0" transform="translate(14, 50)"></g><g id="g-root-tx_precisio_1umswrjixko3v-fill" data-item-order="0" transform="translate(74, 50)"><g id="tx_precisio_1umswrjixko3v-fill" stroke="none" fill="#f4f4f4"><g><text style="font: 20px &quot;Shantell Sans&quot;, cursive; white-space: pre;" font-size="20px" font-family="'Shantell Sans', cursive"><tspan x="12" y="35" dominant-baseline="ideographic">Precision in </tspan><tspan x="12" y="59" dominant-baseline="ideographic">Tasks</tspan></text></g></g></g><g id="g-root-ic_2_qp1uqnixjcaw-fill" data-item-order="0" transform="translate(434, 50)"></g><g id="g-root-tx_parallel_m98cm7ixkqh2-fill" data-item-order="0" transform="translate(494, 38)"><g id="tx_parallel_m98cm7ixkqh2-fill" stroke="none" fill="#f4f4f4"><g><text style="font: 20px &quot;Shantell Sans&quot;, cursive; white-space: pre;" font-size="20px" font-family="'Shantell Sans', cursive"><tspan x="12" y="35" dominant-baseline="ideographic">Parallel </tspan><tspan x="12" y="59" dominant-baseline="ideographic">Processing </tspan><tspan x="12" y="83" dominant-baseline="ideographic">Power</tspan></text></g></g></g><g id="g-root-tx_cpu_1hd7tnjixkop5-fill" data-item-order="0" transform="translate(92, 194)"><g id="tx_cpu_1hd7tnjixkop5-fill" stroke="none" fill="#f4f4f4"><g><text style="font: 20px &quot;Shantell Sans&quot;, cursive; white-space: pre;" font-size="20px" font-family="'Shantell Sans', cursive"><tspan x="15.52" y="35" dominant-baseline="ideographic">CPU</tspan></text></g></g></g><g id="g-root-tx_gpu_mb3rvjixkphg-fill" data-item-order="0" transform="translate(512, 194)"><g id="tx_gpu_mb3rvjixkphg-fill" stroke="none" fill="#f4f4f4"><g><text style="font: 20px &quot;Shantell Sans&quot;, cursive; white-space: pre;" font-size="20px" font-family="'Shantell Sans', cursive"><tspan x="13.95" y="35" dominant-baseline="ideographic">GPU</tspan></text></g></g></g><g id="g-root-tx_chooseth_1lua9y7ixkq33-fill" data-item-order="0" transform="translate(50, 278)"><g id="tx_chooseth_1lua9y7ixkq33-fill" stroke="none" fill="#f4f4f4"><g><text style="font: bold 25px &quot;Shantell Sans&quot;, cursive; white-space: pre;" font-weight="bold" font-size="25px" font-family="'Shantell Sans', cursive"><tspan x="13.14" y="45" dominant-baseline="ideographic">Choose the right processor for your task.</tspan></text></g></g></g><g id="g-root-sy_0_cu-plate_4j7aanixhuyo-stroke" data-item-order="-67386" transform="translate(14, 122)"><g id="sy_0_cu-plate_4j7aanixhuyo-stroke" fill="none" stroke-linecap="round" stroke-linejoin="round" stroke-miterlimit="4" stroke="#f4f4f4" stroke-width="4"><g><path d="M 634 10C 622 9.6 609.9 9.8 597.8 10C 584.1 10.2 570.4 9.3 556.7 10C 543.5 10.7 530.3 10 517 10C 505 10 492.9 11.3 480.9 10C 468.4 8.6 455.7 8.6 443.3 10C 429 11.6 414.6 9.3 400.3 10C 387.3 10.6 374.1 11.8 361.2 10C 347.6 8.1 333.7 9.3 320 10C 306.2 10.7 292.3 8.3 278.7 10C 265 11.7 251.1 10.1 237.3 10C 225.5 9.9 213.8 9.9 202 10C 190.2 10.1 178.2 11.9 166.5 10C 154.1 8 141.4 11.2 128.9 10C 115.2 8.6 101.3 11.3 87.6 10C 73.6 8.7 59.5 10.3 45.4 10C 33.6 9.7 21.8 10.2 10 10C 10.1 14 11.4 18.2 10 22C 25.7 22 41.5 23.3 57.2 22C 71.8 20.8 86.7 23.8 101.3 22C 117.6 20 134.3 23.7 150.7 22C 166.8 20.3 183.2 23.9 199.2 22C 213.9 20.2 228.8 20.5 243.5 22C 259.6 23.7 275.9 21.3 292.1 22C 308.7 22.7 325.5 21.3 342.1 22C 359.8 22.8 377.6 23.3 395.3 22C 412.1 20.8 429.1 20.4 446 22C 462.5 23.5 479.3 20.8 495.9 22C 511.5 23.2 527.2 22.9 542.9 22C 559 21.1 575.1 21.9 591.3 22C 605.5 22.1 619.8 22 634 22C 633.9 18 633 13.9 634 10"></path><path d="M 634 10L 10 10L 10 22L 634 22L 634 10Z"></path></g></g></g><g id="g-root-sy_0_cu-triangle_1q8utwfixhwch-stroke" data-item-order="-67384" transform="translate(278.6169128417969, 135.2362060546875)"><g id="sy_0_cu-triangle_1q8utwfixhwch-stroke" fill="none" stroke-linecap="round" stroke-linejoin="round" stroke-miterlimit="4" stroke="#f4f4f4" stroke-width="4"><g><path d="M 56.483087 10.563763C 57.083087 9.963763 57.883087 9.863763 58.283087 10.563763C 67.883087 25.763763 74.383087 42.663763 82.383087 58.763763C 89.783087 73.663763 99.083087 87.663763 104.683087 103.363763C 104.883087 104.063763 104.483087 104.763763 103.783087 104.763763C 72.883087 102.663763 41.883087 105.063763 10.983087 104.763763C 10.283087 104.763763 9.583087 103.863763 10.083087 103.363763C 33.083087 77.463763 39.783087 40.763763 56.483087 10.563763"></path><path d="M 56.489087 10.552763C 56.857087 9.815763 57.909087 9.815763 58.277087 10.552763L 104.659087 103.316763C 104.992087 103.981763 104.508087 104.763763 103.765087 104.763763L 11.001087 104.763763C 10.258087 104.763763 9.774087 103.981763 10.107087 103.316763L 56.489087 10.552763Z"></path></g></g></g><g id="g-root-ic_carp_1hd7tnjixhx56-stroke" data-item-order="0" transform="translate(14, 50)"><g id="ic_carp_1hd7tnjixhx56-stroke" fill="none" stroke-linecap="round" stroke-linejoin="round" stroke-miterlimit="4" stroke="#f4f4f4" stroke-width="2"><g><path d="M 19.799999 48.400002C 17 49.200001 14 49.400002 11.4 48.400002C 9.6 42.599998 13 36 11.4 30.200001C 11 28.799999 12.6 28.200001 13.8 27.6C 15.2 27 17 27.200001 18.6 27.6C 18.6 29.4 17 30.799999 16.799999 32.599998C 17.4 34 18.799999 35 19.799999 36.200001C 19.4 37.599998 18.200001 38.599998 17.4 39.799999C 18.799999 41 19.6 42.599998 21 43.599998C 21 45.200001 20.6 47 19.799999 48.400002M 11.4 48.400002C 10.8 50.400002 10.6 52.599998 11.4 54.599998C 11.8 55.799999 12.4 56.799999 13.8 57C 15.8 57.400002 17.799999 57.200001 19.799999 57C 21.200001 57 22.200001 56 22.200001 54.599998C 22.200001 52.599998 22.4 50.400002 22.200001 48.400002C 21.4 48.400002 20.6 48.400002 19.799999 48.400002M 28.6 45.799999C 29.6 45.599998 30.6 44.599998 31.6 44.400002C 33.599998 46 35.799999 48 38.200001 47.200001C 40.400002 46.200001 43.599998 46.599998 44.599998 44.400002C 50.400002 46 56.599998 50.400002 56.599998 56.400002M 27.4 25C 27.4 26 27.4 26.799999 27.4 27.6C 28.4 33.400002 32.400002 37 38 38.200001C 43.799999 39.200001 48.599998 33.400002 48.599998 27.6C 48.799999 26.799999 48.599998 26 48.599998 25M 52.599998 21.6C 53.200001 23.4 51 24.4 49.200001 25C 42.400002 27.799999 34.400002 25.4 27.200001 25C 25.4 24.6 23.799999 23.4 23.799999 21.6C 23.799999 19.799999 25.200001 18.200001 27.200001 18.200001C 34.400002 17.799999 42 19.799999 49.200001 18.200001C 51 17.799999 52.200001 19.799999 52.599998 21.6M 31.200001 18.200001C 31.799999 20.4 31.799999 22.799999 31.200001 25M 45.200001 18.200001C 45.200001 20.4 46 23 45.200001 25M 28.6 45.799999C 29 49.400002 29.4 53 28.6 56.400002M 47.799999 45.799999C 46.599998 49.200001 46.400002 53.200001 47.799999 56.400002M 28.6 53.400002C 35 53.200001 41.400002 53.400002 47.799999 53.400002M 15.4 52.799999C 16.4 52.599998 17.4 53 18.200001 52.799999M 38 25C 37.799999 22.799999 37.599998 20.4 38 18.200001M 41.200001 33.599998C 39 34.400002 36.599998 35.200001 35.200001 33.599998M 42.200001 28.200001C 42.400002 28.200001 42.599998 28.4 42.599998 28.6C 42.599998 29 42.400002 29.200001 42.200001 29.200001C 41.799999 29 41.599998 28.799999 41.599998 28.6C 41.599998 28.4 41.799999 28 42.200001 28.200001M 34.200001 28.200001C 34.400002 28.200001 34.599998 28.4 34.599998 28.6C 34.599998 28.799999 34.400002 29 34.200001 29.200001C 33.799999 29.200001 33.599998 28.799999 33.599998 28.6C 33.599998 28.4 33.799999 28 34.200001 28.200001M 48 18.200001C 45.400002 14.6 42.599998 10.4 38.200001 11C 33.599998 11.6 28.6 13.6 28.200001 18.200001C 34.799999 18 41.599998 19.200001 48 18.200001"></path><path d="M 19.799999 48.448002L 11.334 48.448002L 11.334 30.124001C 11.334 28.77532 12.42732 27.681999 13.776 27.681999L 18.576 27.681999L 16.822001 32.568001L 19.799999 36.232002L 17.362 39.898003L 21.028 43.562ZM 11.334 48.448002L 11.334 54.556C 11.334 55.905003 12.426997 56.998894 13.776 57L 19.799999 57C 21.149784 57 22.243999 55.905785 22.243999 54.556L 22.243999 48.448002L 19.799999 48.448002M 28.52 45.782001C 29.50473 45.233055 30.535269 44.770653 31.599998 44.399998L 31.6 44.400002L 31.620001 44.419998C 33.345787 46.148773 35.688255 47.120239 38.130997 47.120239C 40.573746 47.120239 42.91621 46.148773 44.641998 44.419998C 50.242611 46.395401 54.659275 50.782696 56.672001 56.369999M 27.455999 25.054001L 27.455999 27.681999C 27.535696 33.487682 32.264771 38.152287 38.070999 38.152287C 43.877228 38.152287 48.606304 33.487682 48.686001 27.682001L 48.686001 25.054001M 52.576 21.616001C 52.576 23.514755 51.036755 25.054001 49.138 25.054001L 27.112 25.054001C 25.244999 25.008968 23.754944 23.482544 23.754944 21.615C 23.754944 19.747456 25.244999 18.221031 27.112 18.175999L 49.138 18.175999C 51.037079 18.177105 52.576 19.716921 52.576 21.616001ZM 31.118 18.175999L 31.118 25.054001M 45.132 18.175999L 45.132 25.054001M 28.52 45.782001L 28.52 56.493999M 47.73 45.821999L 47.73 56.493999M 28.52 53.462002L 47.73 53.462002M 15.356 52.723999L 18.228001 52.723999M 38.071999 25.054001L 38.071999 18.175999M 41.125999 33.625999C 39.348221 34.959335 36.903778 34.959335 35.125999 33.625999M 42.125999 28.125999C 42.402142 28.125999 42.625999 28.349857 42.625999 28.625999C 42.625999 28.902142 42.402142 29.125999 42.125999 29.125999C 41.849857 29.125999 41.625999 28.902142 41.625999 28.625999C 41.625999 28.349857 41.849857 28.125999 42.125999 28.125999M 34.125999 28.125999C 34.402142 28.125999 34.625999 28.349857 34.625999 28.625999C 34.625999 28.902142 34.402142 29.125999 34.125999 29.125999C 33.849857 29.125999 33.625999 28.902142 33.625999 28.625999C 33.625999 28.349857 33.849857 28.125999 34.125999 28.125999M 48.076 18.175999C 46.649551 13.891451 42.640762 11.000966 38.125 11.000966C 33.609238 11.000966 29.600447 13.891451 28.174 18.175999Z"></path></g></g></g><g id="g-root-tx_precisio_1umswrjixko3v-stroke" data-item-order="0" transform="translate(74, 50)"></g><g id="g-root-ic_2_qp1uqnixjcaw-stroke" data-item-order="0" transform="translate(434, 50)"><g id="ic_2_qp1uqnixjcaw-stroke" fill="none" stroke-linecap="round" stroke-linejoin="round" stroke-miterlimit="4" stroke="#f4f4f4" stroke-width="2"><g><path d="M 56.599998 51.400002C 57 54.200001 54.200001 56.400002 51.599998 56.400002C 39.799999 56.799999 28 54.400002 16.6 56.400002C 13.8 57 12 54.200001 11.6 51.400002C 11 48.799999 13.8 46 16.6 46.400002C 28 48.200001 39.799999 45.400002 51.599998 46.400002C 54.200001 46.599998 57 48.799999 56.599998 51.400002M 18 36.200001C 21 36.599998 24.4 37 27.4 36.200001C 28.4 35.799999 29.200001 37 29.4 38.200001C 30 40.799999 29 43.599998 29.4 46.400002C 25 47.400002 20.4 46.599998 16 46.400002C 16.6 43.799999 17 40.799999 16 38.200001C 15.6 37 17 36.200001 18 36.200001M 39.599998 36.200001C 42.599998 35.400002 45.799999 36.200001 49 36.200001C 50 36 50.799999 37 51 38.200001C 51.400002 40.799999 51.400002 43.799999 51 46.400002C 46.599998 46.799999 42 45.599998 37.599998 46.400002C 37.200001 43.599998 37.400002 40.799999 37.599998 38.200001C 37.599998 37 38.400002 36.400002 39.599998 36.200001M 18 51.400002C 18.200001 52 18.4 52.400002 19 52.400002C 19.6 52.400002 20 52 20 51.400002C 20 50.799999 19.6 50.599998 19 50.400002C 18.4 50.200001 18 50.799999 18 51.400002M 28 51.400002C 28.200001 52 28.4 52.400002 29 52.400002C 29.6 52.400002 30 52 30 51.400002C 30 50.799999 29.6 50.400002 29 50.400002C 28.4 50.400002 27.799999 50.799999 28 51.400002M 38 51.400002C 38.200001 52 38.599998 52.599998 39 52.400002C 39.599998 52.200001 40 52 40 51.400002C 40.200001 50.799999 39.599998 50.599998 39 50.400002C 38.599998 50.200001 38 50.799999 38 51.400002M 48 51.400002C 48 52 48.599998 52.599998 49 52.400002C 49.599998 52.200001 50.200001 52 50 51.400002C 50 50.799999 49.599998 50.599998 49 50.400002C 48.599998 50.200001 48.200001 50.799999 48 51.400002M 51.400002 25.799999C 46.599998 26 41.599998 25.4 36.799999 25.799999C 35 26 32.799999 24.200001 33.400002 22.4C 33.799999 20.6 35 18.6 36.799999 19C 41.599998 20.200001 46.599998 18.799999 51.400002 19M 48 22.4C 47.599998 24.200001 49.599998 25.200001 51.400002 25.799999C 53.200001 26.4 54.599998 24.200001 54.799999 22.4C 55 20.6 53.200001 18.799999 51.400002 19C 49.599998 19.200001 48.599998 20.6 48 22.4M 49.799999 11.6C 51.599998 14 53.200001 16.799999 53.599998 20M 47.400002 19C 46.400002 16.6 45.400002 14 44 11.6M 27.799999 22.4C 29.6 21.799999 31.6 22.6 33.400002 22.4M 21 19C 23.200001 19 25.6 19.6 27.799999 19C 27.200001 21.200001 27.799999 23.6 27.799999 25.799999C 25.6 26.4 23.200001 25.200001 21 25.799999C 21.4 23.6 21.799999 21.200001 21 19M 24.4 25.799999C 24.799999 27.6 24.4 29.6 24.4 31.4"></path><path d="M 56.5 51.43C 56.5 54.191425 54.261425 56.43 51.5 56.43L 16.5 56.43C 13.738577 56.43 11.5 54.191425 11.5 51.43C 11.5 48.668575 13.738577 46.43 16.5 46.43L 51.5 46.43C 54.261425 46.43 56.5 48.668575 56.5 51.43ZM 18 36.099998L 27.4 36.099998C 28.50457 36.099998 29.4 36.99543 29.4 38.099998L 29.4 46.431999L 29.4 46.431999L 16 46.431999L 16 46.431999L 16 38.099998C 16 36.99543 16.895432 36.099998 18 36.099998ZM 39.540001 36.099998L 48.939999 36.099998C 50.044571 36.099998 50.939999 36.99543 50.939999 38.099998L 50.939999 46.431999L 50.939999 46.431999L 37.540001 46.431999L 37.540001 46.431999L 37.540001 38.099998C 37.540001 36.99543 38.435432 36.099998 39.540001 36.099998ZM 18 51.43C 18 51.982285 18.447716 52.43 19 52.43C 19.552284 52.43 20 51.982285 20 51.43C 20 50.877716 19.552284 50.43 19 50.43C 18.447716 50.43 18 50.877716 18 51.43M 28 51.43C 28 51.982285 28.447716 52.43 29 52.43C 29.552284 52.43 30 51.982285 30 51.43C 30 50.877716 29.552284 50.43 29 50.43C 28.447716 50.43 28 50.877716 28 51.43M 38.084 51.43C 38.084 51.982285 38.531715 52.43 39.084 52.43C 39.636284 52.43 40.084 51.982285 40.084 51.43C 40.084 50.877716 39.636284 50.43 39.084 50.43C 38.531715 50.43 38.084 50.877716 38.084 51.43M 48.084 51.43C 48.084 51.982285 48.531715 52.43 49.084 52.43C 49.636284 52.43 50.084 51.982285 50.084 51.43C 50.084 50.877716 49.636284 50.43 49.084 50.43C 48.531715 50.43 48.084 50.877716 48.084 51.43M 51.400002 25.799999L 36.765999 25.799999C 34.900009 25.800526 33.387047 24.287989 33.387047 22.422001C 33.387047 20.556011 34.900009 19.043476 36.765999 19.043999L 51.400002 19.043999M 48.026001 22.422001C 48.025475 24.287989 49.53801 25.800949 51.403999 25.800949C 53.269989 25.800949 54.782524 24.287989 54.781998 22.422001C 54.782524 20.556011 53.269989 19.043049 51.403999 19.043049C 49.53801 19.043049 48.025475 20.556011 48.025997 22.422001M 49.716 11.57L 53.655998 19.903999M 47.498001 19.043999L 44.084 11.57M 27.756001 22.422001L 33.386002 22.422001M 21 19.043999L 27.756001 19.043999L 27.756001 25.799999L 21 25.799999ZM 24.378 25.799999L 24.378 31.43"></path></g></g></g><g id="g-root-tx_parallel_m98cm7ixkqh2-stroke" data-item-order="0" transform="translate(494, 38)"></g><g id="g-root-tx_cpu_1hd7tnjixkop5-stroke" data-item-order="0" transform="translate(92, 194)"></g><g id="g-root-tx_gpu_mb3rvjixkphg-stroke" data-item-order="0" transform="translate(512, 194)"></g><g id="g-root-tx_chooseth_1lua9y7ixkq33-stroke" data-item-order="0" transform="translate(50, 278)"></g></g></g><path id="w140hqzjkbmxhi" d="M65.283 12.757a.35.35 0 0 0 .584.157l5.203-5.141-6.183 3.523.396 1.461zm-2.216-11.7a.35.35 0 0 0-.522.305v3.111l3.276-1.868-2.754-1.548zm3.728 2.105l-4.25 2.421v2.445l6.391-3.644-2.141-1.222zm4.708 3.303a.35.35 0 0 0 0-.609l-1.592-.9-7.365 4.199v1.782a.35.35 0 0 0 .523.305l8.435-4.777z M44.542 2.513c0-.433.355-.783.792-.783s.792.35.792.783-.355.783-.792.783-.792-.35-.792-.783zm59.171 0c0-.433.355-.783.792-.783s.792.35.792.783-.355.783-.792.783-.792-.35-.792-.783zm-85.951 7.636h-1.27v-.487c-.276.201-.864.609-1.881.609-1.202 0-2.274-.794-2.137-2.078.118-1.106 1.153-1.584 1.848-1.727l2.17-.345c0-.539-.29-.956-1.064-1.006s-1.21.305-1.571 1.017l-1.124-.605c1.218-2.631 5.029-1.764 5.029.414v4.207zm-1.27-2.86c.006.396-.062 1.112-.819 1.59-.587.37-1.841.299-1.903-.395-.049-.555.461-.791.906-.898l1.816-.297zm72.662 2.86h-1.27v-.487c-.276.201-.864.609-1.881.609-1.202 0-2.274-.794-2.137-2.078.118-1.106 1.153-1.584 1.848-1.727l2.17-.345c0-.539-.29-.956-1.064-1.006s-1.21.305-1.571 1.017l-1.124-.605c1.218-2.631 5.029-1.764 5.029.414v4.207zm-1.27-2.86c.006.396-.062 1.112-.82 1.59-.587.37-1.841.299-1.903-.395-.049-.555.461-.791.906-.898l1.816-.297zM99.096 10.149H97.85v-8.45h1.246v4.895l2.68-2.559h1.738l-2.633 2.535 2.715 3.578h-1.556l-2.077-2.707-.867.844v1.863zm6.053-6.114h-1.255v6.113h1.255V4.035zm-59.2 0h-1.255v6.113h1.255V4.035zm5.584 6.113V1.697h1.255v2.695c.361-.346 1-.485 1.47-.485 1.452 0 2.477 1.082 2.457 2.448v3.792h-1.27v-3.68c0-.408-.214-1.339-1.315-1.339-.968 0-1.342.756-1.342 1.339v3.681h-1.255zm-4.76-4.894V4.039h.621a.45.45 0 0 0 .45-.45v-.855h1.251v1.305h1.309v1.215h-1.309v3.109c0 .293.105.664.648.664.365 0 .531-.035.736-.07v1.137s-.361.113-.857.113c-1.398 0-1.777-1.051-1.777-1.788V5.254h-1.071zM36.528 4.039h-1.394l2.191 6.106h1.125l1.234-3.918 1.238 3.918h1.129l2.188-6.106h-1.383l-1.359 3.93-1.256-3.93h-1.124l-1.242 3.957-1.348-3.957zM26.212 7.141c-.02 1.566 1.187 3.129 3.223 3.129 1.566 0 2.383-.918 2.734-1.719L31.172 8c-.315.399-.801 1.094-1.738 1.094-1.145 0-1.825-.781-1.891-1.52h4.625c.074-.284.148-.995-.03-1.559-.336-1.064-1.221-2.102-2.839-2.102s-3.088 1.152-3.088 3.227zm1.363-.75h3.348c-.055-.43-.566-1.301-1.623-1.301a1.79 1.79 0 0 0-1.725 1.301zm-8.758.75c.038 1.758 1.277 3.133 3.145 3.133 1.074 0 1.723-.477 1.961-.672v.547h1.242V1.703h-1.258v2.888c-.414-.36-1.062-.68-1.93-.68-1.91 0-3.198 1.473-3.16 3.23zm1.309-.08c0 1.119.723 1.978 1.836 1.978a1.88 1.88 0 0 0 1.94-1.904c0-1.371-1.011-1.99-1.972-1.99s-1.805.798-1.805 1.916zm76.683-.028C96.771 5.275 95.532 3.9 93.664 3.9c-1.074 0-1.723.477-1.961.672v-.547h-1.242v8.22h1.258V9.583c.414.36 1.063.68 1.93.68 1.91 0 3.198-1.473 3.16-3.23zm-1.309.08c0-1.119-.723-1.978-1.836-1.978a1.88 1.88 0 0 0-1.94 1.904c0 1.371 1.011 1.99 1.972 1.99S95.5 8.231 95.5 7.113zM106.441 10.173V4.036h1.254v.382c.361-.346 1-.485 1.47-.485 1.452 0 2.477 1.082 2.457 2.448v3.792h-1.27V6.492c0-.408-.214-1.339-1.315-1.339-.969 0-1.342.756-1.342 1.339v3.681h-1.254zm-30.383-.021V1.824h1.084l4.215 5.777V1.824h1.32v8.328h-1.094l-4.207-5.796v5.796h-1.319zM5.24 10.149H4V2.377h1.014l2.664 3.597 2.654-3.592h1.03v7.766h-1.256V4.762L7.678 8.068 5.24 4.742v5.407z" transform="translate(546, 358)" fill="#ababab88" stroke="none"></path></svg>