<?xml version="1.0" encoding="utf-8" standalone="yes"?>
<!DOCTYPE svg PUBLIC "-//W3C//DTD SVG 1.1//EN" "http://www.w3.org/Graphics/SVG/1.1/DTD/svg11.dtd">
<svg width="708" height="930" viewBox="0 0 708 930" style="fill:none;stroke:none;fill-rule:evenodd;clip-rule:evenodd;stroke-linecap:round;stroke-linejoin:round;stroke-miterlimit:1.5;" version="1.1" xmlns="http://www.w3.org/2000/svg" xmlns:xlink="http://www.w3.org/1999/xlink"><style class="text-font-style fontImports" data-font-family="Shantell Sans">@import url('https://fonts.googleapis.com/css2?family=Shantell+Sans:wght@300..800&amp;display=block');</style><g id="items" style="isolation: isolate"><g id="blend" style="mix-blend-mode: normal"><g id="g-root-cp_1_shape-1_4ju0svjrf94w-fill" data-item-order="-574184" transform="translate(35.499969482421875, 115.81640625)"><g id="cp_1_shape-1_4ju0svjrf94w-fill" stroke="none" fill="#2c2c2c"><g><path d="M 214.000203 352.183563L 45.999903 352.183463C 26.117703 352.183463 10.000003 336.081263 10.000003 316.199163L 10.000003 316.183563L 250.000203 316.183563C 250.000203 336.065763 233.882203 352.183563 214.000203 352.183563ZM 254.600031 28.374594L 250.000031 28.374594L 250.000031 160.183594L 10.000031 160.183594C 10.000052 140.301594 26.117731 124.504594 45.999931 124.504594L 172.000031 124.504594C 213.070031 124.504594 238.000031 94.374494 238.000031 55.034494L 238.000031 28.374494L 233.320031 28.374494C 232.540031 28.374494 232.050031 27.524494 232.440031 26.844494L 243.163031 10.631894C 243.559031 10.032994 244.439031 10.034394 244.833031 10.634594L 255.480031 26.844494C 255.880031 27.524594 255.390031 28.374594 254.600031 28.374594ZM 250.000031 160.183579L 250.000031 316.183563L 10.000031 316.183563L 10.000059 160.183579L 250.000031 160.183579Z"></path></g></g></g><g id="g-root-cp_3_shape-3_1q9hkenjrfaiq-fill" data-item-order="-574164" transform="translate(35, 422)"><g id="cp_3_shape-3_1q9hkenjrfaiq-fill" stroke="none" fill="#2c2c2c"><g><path d="M 214 64.3209C 244 64.3209 268 46 268 10L 280 10L 280 100.3055L 10 100.3055C 10.000022 80.4233 26.1177 64.3209 45.9999 64.3209L 214 64.3209Z"></path></g></g></g><g id="g-root-cp_3_shape-3_1_1cynj4fjrf8xw-fill" data-item-order="-574158" transform="translate(287.302734375, 116)"><g id="cp_3_shape-3_1_1cynj4fjrf8xw-fill" stroke="none" fill="#2c2c2c"><g><path d="M 27.696778 315.999969L 15.696778 315.999969L 15.696778 159.999985L 27.696778 159.999985L 27.696778 315.999969ZM 32.2969 28.191L 27.6969 28.191L 27.6969 160L 15.6969 160L 15.6969 28.1909L 11.0169 28.1909C 10.2369 28.1909 9.7469 27.3409 10.1369 26.6609L 20.8599 10.4483C 21.2561 9.8494 22.1356 9.8508 22.5298 10.451L 33.1769 26.6609C 33.5769 27.341 33.0869 28.191 32.2969 28.191Z"></path></g></g></g><g id="g-root-cp_5_shape-5_1430ivjjrf9qm-fill" data-item-order="-574148" transform="translate(317.302734375, 116)"><g id="cp_5_shape-5_1430ivjjrf9qm-fill" stroke="none" fill="#2c2c2c"><g><path d="M 27.696778 315.999969L 15.696778 315.999969L 15.696778 159.999985L 27.696778 159.999985L 27.696778 315.999969ZM 32.2969 28.191L 27.6969 28.191L 27.6969 160L 15.6969 160L 15.6969 28.1909L 11.0169 28.1909C 10.2369 28.1909 9.7469 27.3409 10.1369 26.6609L 20.8599 10.4483C 21.2561 9.8494 22.1356 9.8508 22.5298 10.451L 33.1769 26.6609C 33.5769 27.341 33.0869 28.191 32.2969 28.191Z"></path></g></g></g><g id="g-root-cp_2_shape-2_v7dimnjrfbb4-fill" data-item-order="-574134" transform="translate(407.8775634765625, 115.81640625)"><g id="cp_2_shape-2_v7dimnjrfbb4-fill" stroke="none" fill="#2c2c2c"><g><path d="M 51.622433 352.183624L 219.622433 352.183524C 239.504433 352.183524 255.622433 336.081324 255.622433 316.199224L 255.622433 316.183624L 15.622433 316.183624C 15.622433 336.065824 31.740133 352.183624 51.622433 352.183624ZM 11.022416 28.374594L 15.622416 28.374594L 15.622416 160.183594L 255.622016 160.183594C 255.622016 140.301594 239.505016 124.504594 219.623016 124.504594L 93.622416 124.504594C 52.552416 124.504594 27.622416 94.374494 27.622416 55.034494L 27.622416 28.374494L 32.302416 28.374494C 33.082416 28.374494 33.572416 27.524494 33.182416 26.844494L 22.459416 10.631894C 22.063216 10.032994 21.183716 10.034394 20.789516 10.634594L 10.142416 26.844494C 9.742416 27.524594 10.232416 28.374594 11.022416 28.374594ZM 15.62233 160.183579L 15.62233 316.183563L 255.62233 316.183563L 255.62233 160.183579L 15.62233 160.183579Z"></path></g></g></g><g id="g-root-cp_4_shape-4_hwjhcfjrf9qa-fill" data-item-order="-574114" transform="translate(383, 422)"><g id="cp_4_shape-4_hwjhcfjrf9qa-fill" stroke="none" fill="#2c2c2c"><g><path d="M 76 64.3209C 46 64.3209 22 46 22 10L 10 10L 10 100.3055L 280 100.3055C 280 80.4233 263.882 64.3209 244 64.3209L 76 64.3209Z"></path></g></g></g><g id="g-root-cp_4_shape-4_1_90wh3jjrfaj0-fill" data-item-order="-574108" transform="translate(377.382568359375, 116)"><g id="cp_4_shape-4_1_90wh3jjrfaj0-fill" stroke="none" fill="#2c2c2c"><g><path d="M 15.622559 315.999969L 27.622559 315.999969L 27.622559 159.999985L 15.622559 159.999985L 15.622559 315.999969ZM 11.0224 28.191L 15.6224 28.191L 15.6224 160L 27.6224 160L 27.6224 28.1909L 32.3024 28.1909C 33.0824 28.1909 33.5724 27.3409 33.1824 26.6609L 22.4594 10.4483C 22.0632 9.8494 21.1837 9.8508 20.7895 10.451L 10.1424 26.6609C 9.7424 27.341 10.2324 28.191 11.0224 28.191Z"></path></g></g></g><g id="g-root-cp_6_shape-6_1ur6hsfjrf8r2-fill" data-item-order="-574098" transform="translate(347.382568359375, 116)"><g id="cp_6_shape-6_1ur6hsfjrf8r2-fill" stroke="none" fill="#2c2c2c"><g><path d="M 15.622559 315.999969L 27.622559 315.999969L 27.622559 159.999985L 15.622559 159.999985L 15.622559 315.999969ZM 11.0224 28.191L 15.6224 28.191L 15.6224 160L 27.6224 160L 27.6224 28.1909L 32.3024 28.1909C 33.0824 28.1909 33.5724 27.3409 33.1824 26.6609L 22.4594 10.4483C 22.0632 9.8494 21.1837 9.8508 20.7895 10.451L 10.1424 26.6609C 9.7424 27.341 10.2324 28.191 11.0224 28.191Z"></path></g></g></g><g id="g-root-cp_3_shape-3_2_1lvjhjjjrfabk-fill" data-item-order="-574080" transform="translate(35, 512)"><g id="cp_3_shape-3_2_1lvjhjjjrfabk-fill" stroke="none" fill="#2c2c2c"><g><path d="M 280 10L 280 141.978546L 10 141.978546L 10.000031 10L 280 10ZM 244 178.007786L 45.9999 178.007686C 26.1177 178.007686 10.000032 161.905486 10 142.023386L 10 142.007786L 280 142.007786C 280 161.889986 263.882 178.007786 244 178.007786Z"></path></g></g></g><g id="g-root-cp_5_shape-5_1_1czwhanjrfb4a-fill" data-item-order="-574064" transform="translate(323, 422)"><g id="cp_5_shape-5_1_1czwhanjrfb4a-fill" stroke="none" fill="#2c2c2c"><g><path d="M 22 232L 10 232L 10 10.000004L 22 10.000004L 22 232Z"></path></g></g></g><g id="g-root-cp_5_shape-5_2_18kpg9bjrf8qs-fill" data-item-order="-574058" transform="translate(35, 644)"><g id="cp_5_shape-5_2_18kpg9bjrf8qs-fill" stroke="none" fill="#2c2c2c"><g><path d="M 244 64.1372C 274 64.1372 298 45.8782 298 10L 310 10L 310 100L 10 100C 10.000022 80.1851 26.1177 64.1372 45.9999 64.1372L 244 64.1372Z"></path></g></g></g><g id="g-root-cp_4_shape-4_2_zp2g0fjrf9ji-fill" data-item-order="-574048" transform="translate(383, 512)"><g id="cp_4_shape-4_2_zp2g0fjrf9ji-fill" stroke="none" fill="#2c2c2c"><g><path d="M 10 10L 10 142L 280 142L 280 10L 10 10ZM 46 178L 244 177.9999C 263.882 177.9999 280 161.8977 280 142.0156L 280 142L 10 142C 10 161.8822 26.1177 178 46 178Z"></path></g></g></g><g id="g-root-cp_6_shape-6_1_qtffrjjrfb40-fill" data-item-order="-574032" transform="translate(353, 422)"><g id="cp_6_shape-6_1_qtffrjjrfb40-fill" stroke="none" fill="#2c2c2c"><g><path d="M 10 232L 22 232L 22 10.000004L 10 10.000004L 10 232Z"></path></g></g></g><g id="g-root-cp_6_shape-6_2_hyewlrjrf8qy-fill" data-item-order="-574026" transform="translate(353, 644)"><g id="cp_6_shape-6_2_hyewlrjrf8qy-fill" stroke="none" fill="#2c2c2c"><g><path d="M 75.999969 64.3209C 45.999969 64.3209 21.999969 46 21.999969 10L 9.999969 10L 9.999969 100.3055L 309.999969 100.3055C 309.999969 80.4233 293.881969 64.3209 273.999969 64.3209L 75.999969 64.3209Z"></path></g></g></g><g id="g-root-cp_5_shape-5_3_4mye8fjrfabw-fill" data-item-order="-574012" transform="translate(35, 734)"><g id="cp_5_shape-5_3_4mye8fjrfabw-fill" stroke="none" fill="#2c2c2c"><g><path d="M 310 10L 310 118L 10 118L 10.000031 10L 310 10ZM 274 154.0078L 45.9999 154.0077C 26.1178 154.0077 10.000032 137.8821 10 118L 310 118C 310 137.8822 293.882 154.0078 274 154.0078Z"></path></g></g></g><g id="g-root-cp_6_shape-6_3_74w3zjrfb46-fill" data-item-order="-573992" transform="translate(353, 734)"><g id="cp_6_shape-6_3_74w3zjrfb46-fill" stroke="none" fill="#2c2c2c"><g><path d="M 10 10L 10 118L 310 118L 310 10L 10 10ZM 46 154L 274 153.9999C 293.882 153.9999 310 137.8977 310 118.0156L 310 118L 10 118C 10 137.8822 26.1177 154 46 154Z"></path></g></g></g><g id="g-root-tx_initialc_146rde7jrf8jm-fill" data-item-order="0" transform="translate(71.5, 374)"><g id="tx_initialc_146rde7jrf8jm-fill" stroke="none" fill="#f4f4f4"><g><text style="font: 15px &quot;Shantell Sans&quot;, cursive; white-space: pre;" font-size="15px" font-family="'Shantell Sans', cursive"><tspan x="14.26" y="32" dominant-baseline="ideographic">Initial code setup for </tspan><tspan x="46.63" y="50" dominant-baseline="ideographic">optimal GPU </tspan><tspan x="44.29" y="68" dominant-baseline="ideographic">performance.</tspan></text></g></g></g><g id="g-root-tx_managesc_v7dimnjri2v9-fill" data-item-order="0" transform="translate(449, 350)"><g id="tx_managesc_v7dimnjri2v9-fill" stroke="none" fill="#f4f4f4"><g><text style="font: 15px &quot;Shantell Sans&quot;, cursive; white-space: pre;" font-size="15px" font-family="'Shantell Sans', cursive"><tspan x="13.59" y="32" dominant-baseline="ideographic">Manages compilation </tspan><tspan x="28.97" y="50" dominant-baseline="ideographic">process for CUDA </tspan><tspan x="46.3" y="68" dominant-baseline="ideographic">applications.</tspan></text></g></g></g><g id="g-root-tx_nvccdriv_18i7jwvjri4g4-fill" data-item-order="0" transform="translate(467, 314)"><g id="tx_nvccdriv_18i7jwvjri4g4-fill" stroke="none" fill="#f4f4f4"><g><text style="font: bold 20px &quot;Shantell Sans&quot;, cursive; white-space: pre;" font-weight="bold" font-size="20px" font-family="'Shantell Sans', cursive"><tspan x="13.56" y="35" dominant-baseline="ideographic">NVCC Driver</tspan></text></g></g></g><g id="g-root-tx_sourcepr_18lyefjjrfax5-fill" data-item-order="0" transform="translate(89.5, 314)"><g id="tx_sourcepr_18lyefjjrfax5-fill" stroke="none" fill="#f4f4f4"><g><text style="font: bold 20px &quot;Shantell Sans&quot;, cursive; white-space: pre;" font-weight="bold" font-size="20px" font-family="'Shantell Sans', cursive"><tspan x="41.27" y="35" dominant-baseline="ideographic">Source </tspan><tspan x="13.41" y="59" dominant-baseline="ideographic">Preparation</tspan></text></g></g></g><g id="g-root-ic_3_hvx09bjri4g6-fill" data-item-order="0" transform="translate(509.5, 254)"></g><g id="g-root-ic_syst_dl3atrjrji0x-fill" data-item-order="0" transform="translate(146, 500)"></g><g id="g-root-ic_code_qvav0vjrfa4j-fill" data-item-order="0" transform="translate(131.5, 254)"></g><g id="g-root-ic_2_1cza07jjrm9zg-fill" data-item-order="0" transform="translate(494, 500)"></g><g id="g-root-tx_codesepa_zrkccvjrji1b-fill" data-item-order="0" transform="translate(80, 560)"><g id="tx_codesepa_zrkccvjrji1b-fill" stroke="none" fill="#f4f4f4"><g><text style="font: bold 20px &quot;Shantell Sans&quot;, cursive; white-space: pre;" font-weight="bold" font-size="20px" font-family="'Shantell Sans', cursive"><tspan x="14.23" y="35" dominant-baseline="ideographic">Code Separation</tspan></text></g></g></g><g id="g-root-tx_deviceco_dg3i4vjrm9du-fill" data-item-order="0" transform="translate(446, 560)"><g id="tx_deviceco_dg3i4vjrm9du-fill" stroke="none" fill="#f4f4f4"><g><text style="font: bold 20px &quot;Shantell Sans&quot;, cursive; white-space: pre;" font-weight="bold" font-size="20px" font-family="'Shantell Sans', cursive"><tspan x="16.91" y="35" dominant-baseline="ideographic">Device Code </tspan><tspan x="16.84" y="59" dominant-baseline="ideographic">Compilation</tspan></text></g></g></g><g id="g-root-tx_dividesc_qwjt73jrjgg0-fill" data-item-order="0" transform="translate(74, 596)"><g id="tx_dividesc_qwjt73jrjgg0-fill" stroke="none" fill="#f4f4f4"><g><text style="font: 15px &quot;Shantell Sans&quot;, cursive; white-space: pre;" font-size="15px" font-family="'Shantell Sans', cursive"><tspan x="12.18" y="29" dominant-baseline="ideographic">Divides code for CPU and </tspan><tspan x="49.68" y="47" dominant-baseline="ideographic">GPU execution.</tspan></text></g></g></g><g id="g-root-tx_translat_1qa41hrjrmbkb-fill" data-item-order="0" transform="translate(416, 620)"><g id="tx_translat_1qa41hrjrmbkb-fill" stroke="none" fill="#f4f4f4"><g><text style="font: 15px &quot;Shantell Sans&quot;, cursive; white-space: pre;" font-size="15px" font-family="'Shantell Sans', cursive"><tspan x="17.25" y="29" dominant-baseline="ideographic">Translates code into GPU-</tspan><tspan x="44.5" y="47" dominant-baseline="ideographic">executable format.</tspan></text></g></g></g><g id="g-root-tx_optimizi_1ut1x1rjrf8jk-fill" data-item-order="0" transform="translate(158, 38)"><g id="tx_optimizi_1ut1x1rjrf8jk-fill" stroke="none" fill="#f4f4f4"><g><text style="font: bold 25px &quot;Shantell Sans&quot;, cursive; white-space: pre;" font-weight="bold" font-size="25px" font-family="'Shantell Sans', cursive"><tspan x="13.45" y="45" dominant-baseline="ideographic">Optimizing CUDA Workflows</tspan></text></g></g></g><g id="g-root-tx_connects_vcdehbjr41zd-fill" data-item-order="0" transform="translate(389, 818)"><g id="tx_connects_vcdehbjr41zd-fill" stroke="none" fill="#f4f4f4"><g><text style="font: 15px &quot;Shantell Sans&quot;, cursive; white-space: pre;" font-size="15px" font-family="'Shantell Sans', cursive"><tspan x="13.52" y="29" dominant-baseline="ideographic">Connects different code parts </tspan><tspan x="44.99" y="47" dominant-baseline="ideographic">for unified execution.</tspan></text></g></g></g><g id="g-root-ic_serv_zk2qhbjr2o07-fill" data-item-order="0" transform="translate(161, 722)"></g><g id="g-root-ic_chai_hrjrtbjr5eyy-fill" data-item-order="0" transform="translate(479, 722)"></g><g id="g-root-tx_fatbinar_1um6s9bjr2n7x-fill" data-item-order="0" transform="translate(77, 782)"><g id="tx_fatbinar_1um6s9bjr2n7x-fill" stroke="none" fill="#f4f4f4"><g><text style="font: bold 20px &quot;Shantell Sans&quot;, cursive; white-space: pre;" font-weight="bold" font-size="20px" font-family="'Shantell Sans', cursive"><tspan x="15.48" y="35" dominant-baseline="ideographic">Fat Binary Creation</tspan></text></g></g></g><g id="g-root-tx_linking_18ntwunjr40eg-fill" data-item-order="0" transform="translate(461, 782)"><g id="tx_linking_18ntwunjr40eg-fill" stroke="none" fill="#f4f4f4"><g><text style="font: bold 20px &quot;Shantell Sans&quot;, cursive; white-space: pre;" font-weight="bold" font-size="20px" font-family="'Shantell Sans', cursive"><tspan x="14.6" y="35" dominant-baseline="ideographic">Linking</tspan></text></g></g></g><g id="g-root-tx_combines_1cvj8unjr2mfa-fill" data-item-order="0" transform="translate(65, 818)"><g id="tx_combines_1cvj8unjr2mfa-fill" stroke="none" fill="#f4f4f4"><g><text style="font: 15px &quot;Shantell Sans&quot;, cursive; white-space: pre;" font-size="15px" font-family="'Shantell Sans', cursive"><tspan x="15.16" y="29" dominant-baseline="ideographic">Combines compiled code into a </tspan><tspan x="78.93" y="47" dominant-baseline="ideographic">single binary.</tspan></text></g></g></g><g id="g-root-cp_1_shape-1_4ju0svjrf94w-stroke" data-item-order="-574184" transform="translate(35.499969482421875, 115.81640625)"><g id="cp_1_shape-1_4ju0svjrf94w-stroke" fill="none" stroke-linecap="round" stroke-linejoin="round" stroke-miterlimit="4" stroke="#f4f4f4" stroke-width="4"><g><path d="M 10.000031 160.183594C 9.000031 140.283594 26.100031 124.783594 46.000031 124.283594C 66.900031 123.883594 87.800031 122.983594 108.600031 124.283594C 129.700031 125.683594 150.900031 123.483594 172.000031 124.283594C 193.500031 125.183594 211.500031 116.683594 222.100031 102.483594C 231.600031 89.583594 237.500031 73.483594 238.000031 54.883594C 238.300031 45.983594 239.100031 36.983594 238.000031 28.183594C 236.400031 28.283594 234.800031 28.683594 233.300031 28.183594C 232.600031 27.883594 232.200031 27.383594 232.400031 26.683594C 235.300031 20.783594 240.500031 16.383594 243.200031 10.483594C 243.500031 9.783594 244.400031 9.883594 244.800031 10.483594C 248.700031 15.583594 250.900031 22.083594 255.500031 26.683594C 256.000031 27.183594 255.400031 28.183594 254.600031 28.183594C 253.100031 28.183594 251.500031 28.483594 250.000031 28.183594C 249.500031 43.983594 249.700031 59.883594 250.000031 75.683594C 250.300031 90.783594 249.100031 105.983594 250.000031 121.083594C 250.800031 134.083594 251.300031 147.183594 250.000031 160.183594M 250.000031 316.183594C 249.100031 336.083594 233.900031 352.683594 214.000031 352.183594C 195.200031 351.783594 176.400031 350.283594 157.700031 352.183594C 140.500031 353.883594 123.100031 350.783594 105.900031 352.183594C 86.000031 353.783594 66.000031 351.683594 46.000031 352.183594C 26.100031 352.683594 9.700031 336.083594 10.000031 316.183594M 250.000031 316.183594C 251.600031 299.683594 250.200031 283.083594 250.000031 266.483594C 249.800031 249.983594 250.700031 233.383594 250.000031 216.883594C 249.200031 197.983594 249.000031 179.083594 250.000031 160.183594M 10.000031 160.183594C 10.000031 173.783594 10.400031 187.483594 10.000031 201.083594C 9.600031 213.083594 8.700031 225.083594 10.000031 236.983594C 11.300031 248.983594 12.000031 261.283594 10.000031 273.183594C 7.700031 287.283594 10.500031 301.883594 10.000031 316.183594"></path><path d="M 10.000031 160.1836C 10.000031 140.3014 26.117731 124.3209 45.999931 124.3209L 172.000031 124.3209C 213.070031 124.3209 238.000031 94.1909 238.000031 54.8509L 238.000031 28.1909L 233.320031 28.1909C 232.540031 28.1909 232.050031 27.3409 232.440031 26.6609L 243.163131 10.4483C 243.559231 9.8494 244.438731 9.8508 244.833031 10.451L 255.480031 26.6609C 255.880031 27.341 255.390031 28.191 254.600031 28.191L 250.000031 28.191L 250.000031 160.1836M 250.000131 316.183563C 250.000131 336.065763 233.882331 352.191363 214.000131 352.191363L 45.999931 352.191263C 26.117731 352.191263 10.000031 336.081263 10.000031 316.199163L 10.000031 316.183563M 250.000138 316.183563L 250.000138 160.183579M 10.000031 160.183579L 10.000031 316.183563"></path></g></g></g><g id="g-root-cp_3_shape-3_1q9hkenjrfaiq-stroke" data-item-order="-574164" transform="translate(35, 422)"><g id="cp_3_shape-3_1q9hkenjrfaiq-stroke" fill="none" stroke-linecap="round" stroke-linejoin="round" stroke-miterlimit="4" stroke="#f4f4f4" stroke-width="4"><g><path d="M 268 10C 266.7 28.2 262 42.2 251.8 51.1C 241.9 59.7 228.7 62.8 214 64.3C 184.4 67.4 154.5 64.7 124.7 64.3C 98.5 64 72.2 64.2 46 64.3C 26.1 64.4 11.3 80.5 10 100.3M 280 100.3C 281.5 86.7 279.4 73 280 59.4C 280.8 42.9 279.7 26.5 280 10"></path><path d="M 268 10C 268 46 244 64.3209 214 64.3209L 45.9999 64.3209C 26.1177 64.3209 10 80.4233 10 100.3055M 280 100.3055L 280 10"></path></g></g></g><g id="g-root-cp_3_shape-3_1_1cynj4fjrf8xw-stroke" data-item-order="-574158" transform="translate(287.302734375, 116)"><g id="cp_3_shape-3_1_1cynj4fjrf8xw-stroke" fill="none" stroke-linecap="round" stroke-linejoin="round" stroke-miterlimit="4" stroke="#f4f4f4" stroke-width="4"><g><path d="M 15.697266 160C 14.297266 172.6 15.297266 185.4 15.697266 198.1C 16.097266 210.9 15.897266 223.8 15.697266 236.6C 15.497266 250.7 14.797266 264.9 15.697266 279C 16.397266 291.3 15.797266 303.7 15.697266 316M 27.697266 316C 27.997266 298.5 29.397266 281 27.697266 263.6C 25.997266 246.7 28.897266 229.6 27.697266 212.6C 26.397266 195.1 26.597266 177.5 27.697266 160M 15.697266 160C 14.297266 146.1 14.197266 132.1 15.697266 118.2C 17.297266 103.3 15.397266 88.1 15.697266 73.1C 15.997266 58.1 16.997266 43.1 15.697266 28.2C 14.197266 28.6 12.497266 27.7 10.997266 28.2C 10.297266 28.5 9.897266 27.4 10.097266 26.7C 13.997266 21.4 18.297266 16.4 20.897266 10.4C 21.097266 9.8 22.097266 9.9 22.497266 10.5C 26.797266 15.3 30.397266 20.8 33.197266 26.7C 33.397266 27.4 33.097266 28.2 32.297266 28.2C 30.797266 28.1 29.197266 28.3 27.697266 28.2C 27.897266 49.2 26.397266 70.2 27.697266 91.1C 29.097266 114 26.597266 137.1 27.697266 160"></path><path d="M 15.697266 159.999985L 15.697266 315.999969M 27.697266 315.999969L 27.697266 159.999985M 15.6969 160L 15.6969 28.1909L 11.0169 28.1909C 10.2369 28.1909 9.7469 27.3409 10.1369 26.6609L 20.8599 10.4483C 21.2561 9.8494 22.1356 9.8508 22.5298 10.451L 33.1769 26.6609C 33.5769 27.341 33.0869 28.191 32.2969 28.191L 27.6969 28.191L 27.6969 160"></path></g></g></g><g id="g-root-cp_5_shape-5_1430ivjjrf9qm-stroke" data-item-order="-574148" transform="translate(317.302734375, 116)"><g id="cp_5_shape-5_1430ivjjrf9qm-stroke" fill="none" stroke-linecap="round" stroke-linejoin="round" stroke-miterlimit="4" stroke="#f4f4f4" stroke-width="4"><g><path d="M 15.697266 160C 17.497266 187.3 16.697266 214.8 15.697266 242.1C 14.797266 266.7 15.997266 291.4 15.697266 316M 27.697266 316C 29.297266 292.4 27.897266 268.7 27.697266 245C 27.397266 216.7 27.197266 188.3 27.697266 160M 15.697266 160C 13.797266 145.3 15.997266 130.2 15.697266 115.4C 15.397266 102.2 13.997266 88.9 15.697266 75.9C 17.697266 60.1 14.097266 44 15.697266 28.2C 14.197266 28 12.497266 27.6 10.997266 28.2C 10.297266 28.5 9.797266 27.4 10.097266 26.7C 14.997266 22.4 16.597266 15.4 20.897266 10.4C 21.297266 9.9 21.997266 10 22.497266 10.5C 27.497266 14.5 28.697266 21.9 33.197266 26.7C 33.597266 27.3 33.097266 28.3 32.297266 28.2C 30.797266 28 29.097266 27.7 27.697266 28.2C 25.897266 48 28.397266 67.9 27.697266 87.7C 26.897266 111.8 28.997266 135.9 27.697266 160"></path><path d="M 15.697266 159.999985L 15.697266 315.999969M 27.697266 315.999969L 27.697266 159.999985M 15.6969 160L 15.6969 28.1909L 11.0169 28.1909C 10.2369 28.1909 9.7469 27.3409 10.1369 26.6609L 20.8599 10.4483C 21.2561 9.8494 22.1356 9.8508 22.5298 10.451L 33.1769 26.6609C 33.5769 27.341 33.0869 28.191 32.2969 28.191L 27.6969 28.191L 27.6969 160"></path></g></g></g><g id="g-root-cp_2_shape-2_v7dimnjrfbb4-stroke" data-item-order="-574134" transform="translate(407.8775634765625, 115.81640625)"><g id="cp_2_shape-2_v7dimnjrfbb4-stroke" fill="none" stroke-linecap="round" stroke-linejoin="round" stroke-miterlimit="4" stroke="#f4f4f4" stroke-width="4"><g><path d="M 255.622437 160.183594C 255.422437 150.683594 252.022437 141.883594 245.822437 135.583594C 239.122437 128.783594 229.922437 123.883594 219.622437 124.283594C 198.922437 125.183594 178.122437 124.983594 157.322437 124.283594C 136.122437 123.583594 114.822437 125.283594 93.622437 124.283594C 73.522437 123.383594 56.622437 117.683594 45.922437 105.083594C 34.822437 91.983594 28.922437 74.883594 27.622437 54.883594C 27.022437 45.983594 28.122437 37.083594 27.622437 28.183594C 29.122437 27.783594 30.722437 28.083594 32.322437 28.183594C 33.122437 28.283594 33.622437 27.283594 33.222437 26.683594C 29.622437 21.283594 26.222437 15.683594 22.422437 10.483594C 22.022437 9.883594 21.222437 9.883594 20.822437 10.483594C 16.422437 15.183594 12.722437 20.683594 10.122437 26.683594C 9.922437 27.383594 10.222437 28.383594 11.022437 28.183594C 12.522437 27.883594 14.122437 28.183594 15.622437 28.183594C 15.922437 41.683594 13.722437 55.383594 15.622437 68.783594C 17.822437 84.683594 16.922437 100.983594 15.622437 116.983594C 14.422437 131.383594 16.322437 145.783594 15.622437 160.183594M 15.622437 316.183594C 14.922437 336.083594 31.722437 353.183594 51.622437 352.183594C 77.722437 350.883594 104.022437 350.283594 130.122437 352.183594C 159.922437 354.283594 189.822437 350.883594 219.622437 352.183594C 239.522437 353.083594 256.822437 336.083594 255.622437 316.183594M 15.622437 316.183594C 16.622437 303.883594 17.222437 291.483594 15.622437 279.283594C 14.122437 267.383594 16.322437 255.383594 15.622437 243.483594C 14.822437 228.483594 14.122437 213.383594 15.622437 198.483594C 16.922437 185.783594 17.422437 172.783594 15.622437 160.183594M 255.622437 160.183594C 254.322437 177.783594 257.522437 195.583594 255.622437 213.183594C 253.622437 230.983594 254.522437 248.983594 255.622437 266.883594C 256.622437 283.283594 255.922437 299.783594 255.622437 316.183594"></path><path d="M 255.622416 160.1836C 255.622416 140.3014 239.504716 124.3209 219.622616 124.3209L 93.622416 124.3209C 52.552416 124.3209 27.622416 94.1909 27.622416 54.8509L 27.622416 28.1909L 32.302416 28.1909C 33.082416 28.1909 33.572416 27.3409 33.182416 26.6609L 22.459416 10.4483C 22.063216 9.8494 21.183716 9.8508 20.789516 10.451L 10.142416 26.6609C 9.742416 27.341 10.232416 28.191 11.022416 28.191L 15.622416 28.191L 15.622416 160.1836M 15.622437 316.183563C 15.622437 336.065763 31.740137 352.183563 51.622437 352.183563L 219.622637 352.183463C 239.504737 352.183463 255.622437 336.081263 255.622437 316.199163L 255.622437 316.183563M 15.62233 316.183563L 15.62233 160.183579M 255.62233 160.183579L 255.62233 316.183563"></path></g></g></g><g id="g-root-cp_4_shape-4_hwjhcfjrf9qa-stroke" data-item-order="-574114" transform="translate(383, 422)"><g id="cp_4_shape-4_hwjhcfjrf9qa-stroke" fill="none" stroke-linecap="round" stroke-linejoin="round" stroke-miterlimit="4" stroke="#f4f4f4" stroke-width="4"><g><path d="M 22 10C 23.2 46 46 65 76 64.3C 93.4 63.9 110.8 63.3 128.2 64.3C 146.2 65.4 164.4 65.2 182.5 64.3C 203 63.4 223.5 63.4 244 64.3C 263.9 65.2 278.7 80.5 280 100.3M 10 100.3C 11.5 70.2 9.3 40.1 10 10"></path><path d="M 22 10C 22 46 46 64.3209 76 64.3209L 244.0002 64.3209C 263.8824 64.3209 280 80.4233 280 100.3055M 10 100.3055L 10 10"></path></g></g></g><g id="g-root-cp_4_shape-4_1_90wh3jjrfaj0-stroke" data-item-order="-574108" transform="translate(377.382568359375, 116)"><g id="cp_4_shape-4_1_90wh3jjrfaj0-stroke" fill="none" stroke-linecap="round" stroke-linejoin="round" stroke-miterlimit="4" stroke="#f4f4f4" stroke-width="4"><g><path d="M 27.617432 160C 28.817432 185.2 27.017432 210.5 27.617432 235.8C 28.217432 262.5 26.017432 289.3 27.617432 316M 15.617432 316C 16.117432 299.7 13.917432 283.3 15.617432 267C 17.417432 249.8 15.617432 232.4 15.617432 215.1C 15.617432 196.7 16.117432 178.4 15.617432 160M 27.617432 160C 27.717432 146 28.717432 132 27.617432 118.1C 26.317432 101.9 28.817432 85.6 27.617432 69.4C 26.617432 55.7 28.017432 41.9 27.617432 28.2C 29.217432 28 30.717432 28.5 32.317432 28.2C 33.117432 28.1 33.617432 27.3 33.217432 26.7C 30.117432 21 25.617432 16.1 22.417432 10.4C 22.117432 9.8 21.117432 9.8 20.817432 10.5C 17.817432 16.2 14.717432 22.1 10.117432 26.7C 9.917432 27.4 10.217432 28.2 11.017432 28.2C 12.517432 28.1 14.117432 28.5 15.617432 28.2C 17.217432 41.3 16.317432 54.7 15.617432 67.9C 14.817432 83.5 15.817432 99.2 15.617432 114.8C 15.417432 129.8 15.617432 144.9 15.617432 160"></path><path d="M 27.622071 159.999985L 27.622071 315.999969M 15.622071 315.999969L 15.622071 159.999985M 27.6224 160L 27.6224 28.1909L 32.3024 28.1909C 33.0824 28.1909 33.5724 27.3409 33.1824 26.6609L 22.4594 10.4483C 22.0632 9.8494 21.1837 9.8508 20.7895 10.451L 10.1424 26.6609C 9.7424 27.341 10.2324 28.191 11.0224 28.191L 15.6224 28.191L 15.6224 160"></path></g></g></g><g id="g-root-cp_6_shape-6_1ur6hsfjrf8r2-stroke" data-item-order="-574098" transform="translate(347.382568359375, 116)"><g id="cp_6_shape-6_1ur6hsfjrf8r2-stroke" fill="none" stroke-linecap="round" stroke-linejoin="round" stroke-miterlimit="4" stroke="#f4f4f4" stroke-width="4"><g><path d="M 27.617432 160C 27.617432 188.2 29.317432 216.5 27.617432 244.7C 26.217432 268.4 29.317432 292.3 27.617432 316M 15.617432 316C 13.817432 302.7 15.617432 289.1 15.617432 275.6C 15.617432 263.3 16.017432 251.1 15.617432 238.8C 15.117432 224.5 14.217432 210.2 15.617432 196.1C 16.817432 184.1 16.417432 172 15.617432 160M 27.617432 160C 28.317432 149.2 27.817432 138.4 27.617432 127.6C 27.517432 116.1 28.817432 104.6 27.617432 93.2C 26.617432 83.4 28.617432 73.4 27.617432 63.6C 26.417432 51.8 29.017432 39.9 27.617432 28.2C 29.117432 27.8 30.717432 28.3 32.317432 28.2C 33.117432 28.1 33.717432 27.2 33.217432 26.7C 29.217432 21.5 26.417432 15.6 22.417432 10.4C 22.017432 9.9 21.217432 9.9 20.817432 10.5C 16.817432 15.5 15.017432 22.4 10.117432 26.7C 9.617432 27.2 10.317432 28.4 11.017432 28.2C 12.517432 27.7 14.117432 28.1 15.617432 28.2C 15.117432 51.9 15.017432 75.7 15.617432 99.4C 16.117432 119.6 14.517432 139.8 15.617432 160"></path><path d="M 27.622071 159.999985L 27.622071 315.999969M 15.622071 315.999969L 15.622071 159.999985M 27.6224 160L 27.6224 28.1909L 32.3024 28.1909C 33.0824 28.1909 33.5724 27.3409 33.1824 26.6609L 22.4594 10.4483C 22.0632 9.8494 21.1837 9.8508 20.7895 10.451L 10.1424 26.6609C 9.7424 27.341 10.2324 28.191 11.0224 28.191L 15.6224 28.191L 15.6224 160"></path></g></g></g><g id="g-root-cp_3_shape-3_2_1lvjhjjjrfabk-stroke" data-item-order="-574080" transform="translate(35, 512)"><g id="cp_3_shape-3_2_1lvjhjjjrfabk-stroke" fill="none" stroke-linecap="round" stroke-linejoin="round" stroke-miterlimit="4" stroke="#f4f4f4" stroke-width="4"><g><path d="M 280 142C 280 120.3 280.3 98.7 280 77C 279.7 54.7 278.7 32.3 280 10M 10 10C 8.3 24.6 8.7 39.5 10 54.1C 11.4 70.1 9.2 86.2 10 102.3C 10.6 115.5 9.8 128.8 10 142M 280 142C 280 161.9 263.9 178.3 244 178C 223.4 177.7 202.8 177.1 182.2 178C 158.6 179 134.9 177.1 111.3 178C 89.6 178.9 67.8 177.2 46 178C 26.1 178.8 9.5 161.9 10 142"></path><path d="M 280 141.978546L 280 10M 10 10L 10 142M 280.0001 142.007786C 280.0001 161.889986 263.8823 178.007786 244.0001 178.007786L 45.9999 178.007686C 26.1177 178.007686 10 161.905486 10 142.023386L 10 142.007786"></path></g></g></g><g id="g-root-cp_5_shape-5_1_1czwhanjrfb4a-stroke" data-item-order="-574064" transform="translate(323, 422)"><g id="cp_5_shape-5_1_1czwhanjrfb4a-stroke" fill="none" stroke-linecap="round" stroke-linejoin="round" stroke-miterlimit="4" stroke="#f4f4f4" stroke-width="4"><g><path d="M 10 10C 9.5 29.3 10.9 48.6 10 67.9C 9.3 84.5 11.6 101.3 10 117.8C 8 138.4 10.3 159.1 10 179.8C 9.7 197.2 10.2 214.6 10 232M 22 232C 21.2 205.4 23.5 178.7 22 152.1C 20.7 130 20.5 107.8 22 85.7C 23.8 60.5 22.2 35.2 22 10"></path><path d="M 10 10.000004L 10 232M 22 232L 22 10.000004"></path></g></g></g><g id="g-root-cp_5_shape-5_2_18kpg9bjrf8qs-stroke" data-item-order="-574058" transform="translate(35, 644)"><g id="cp_5_shape-5_2_18kpg9bjrf8qs-stroke" fill="none" stroke-linecap="round" stroke-linejoin="round" stroke-miterlimit="4" stroke="#f4f4f4" stroke-width="4"><g><path d="M 298 10C 296.9 45.9 274 65.4 244 64.1C 219.9 63.1 195.8 63.8 171.7 64.1C 149.7 64.5 127.5 65.7 105.5 64.1C 85.7 62.8 65.8 65.8 46 64.1C 26.2 62.5 9.6 80.2 10 100M 310 100C 308.9 85.7 310.6 71.3 310 57C 309.3 41.3 310 25.7 310 10"></path><path d="M 298 10C 298 45.8782 274 64.1372 244 64.1372L 45.9999 64.1372C 26.1177 64.1372 10 80.1851 10 100M 310 100L 310 10"></path></g></g></g><g id="g-root-cp_4_shape-4_2_zp2g0fjrf9ji-stroke" data-item-order="-574048" transform="translate(383, 512)"><g id="cp_4_shape-4_2_zp2g0fjrf9ji-stroke" fill="none" stroke-linecap="round" stroke-linejoin="round" stroke-miterlimit="4" stroke="#f4f4f4" stroke-width="4"><g><path d="M 10 142C 11.8 128.3 10.4 114.3 10 100.4C 9.5 84.9 9.4 69.3 10 53.8C 10.6 39.2 9.8 24.6 10 10M 280 10C 279 30.6 280.6 51.2 280 71.8C 279.4 95.2 278.2 118.7 280 142M 10 142C 9.8 161.9 26.1 177.1 46 178C 60.3 178.7 74.7 177.1 89 178C 100.9 178.8 112.8 178.1 124.8 178C 138.4 177.9 152 178 165.6 178C 177.8 178.1 190 177.5 202.1 178C 216.1 178.6 230.1 179.8 244 178C 263.7 175.5 281.6 161.8 280 142"></path><path d="M 10 142L 10 10M 280 10L 280 142M 10 142C 10 161.8822 26.1177 178.0078 45.9999 178.0078L 244.0001 178.0077C 263.8823 178.0077 280 161.8977 280.0001 142.0156L 280.0001 142"></path></g></g></g><g id="g-root-cp_6_shape-6_1_qtffrjjrfb40-stroke" data-item-order="-574032" transform="translate(353, 422)"><g id="cp_6_shape-6_1_qtffrjjrfb40-stroke" fill="none" stroke-linecap="round" stroke-linejoin="round" stroke-miterlimit="4" stroke="#f4f4f4" stroke-width="4"><g><path d="M 22 10C 22.2 35.7 22.8 61.4 22 87.1C 21.3 109 21.1 130.8 22 152.7C 23.1 179.1 20.8 205.6 22 232M 10 232C 10.6 220.4 11.2 208.7 10 197.1C 8.8 185.3 10.4 173.3 10 161.4C 9.6 147.9 11.5 134.4 10 120.9C 8.7 109.4 10.9 97.7 10 86.1C 9.1 74.1 10.4 62 10 49.9C 9.5 36.6 11.3 23.3 10 10"></path><path d="M 22 10.000004L 22 232M 10 232L 10 10.000004"></path></g></g></g><g id="g-root-cp_6_shape-6_2_hyewlrjrf8qy-stroke" data-item-order="-574026" transform="translate(353, 644)"><g id="cp_6_shape-6_2_hyewlrjrf8qy-stroke" fill="none" stroke-linecap="round" stroke-linejoin="round" stroke-miterlimit="4" stroke="#f4f4f4" stroke-width="4"><g><path d="M 22 10C 20.5 46 46 64.8 76 64.3C 93.4 64 110.9 62.6 128.2 64.3C 145.5 66.1 163.1 65.8 180.5 64.3C 196.9 62.9 213.6 62.8 230.1 64.3C 244.6 65.7 259.4 63.5 274 64.3C 293.9 65.4 309.6 80.4 310 100.3M 10 100.3C 11.8 86.6 10.7 72.7 10 58.9C 9.2 42.6 10 26.3 10 10"></path><path d="M 21.999969 10C 21.999969 46 45.999969 64.3209 75.999969 64.3209L 274.000169 64.3209C 293.882369 64.3209 309.999969 80.4233 309.999969 100.3055M 9.999969 100.3055L 9.999969 10"></path></g></g></g><g id="g-root-cp_5_shape-5_3_4mye8fjrfabw-stroke" data-item-order="-574012" transform="translate(35, 734)"><g id="cp_5_shape-5_3_4mye8fjrfabw-stroke" fill="none" stroke-linecap="round" stroke-linejoin="round" stroke-miterlimit="4" stroke="#f4f4f4" stroke-width="4"><g><path d="M 310 118C 311 105.4 309.9 92.7 310 80C 310.1 68.1 309.3 56.2 310 44.3C 310.7 32.9 309.1 21.4 310 10M 10 10C 8.5 46 9.5 82 10 118M 310 118C 311.4 137.8 293.9 153.4 274 154C 250.2 154.7 226.4 153.9 202.7 154C 174.4 154.2 146.1 152.4 117.9 154C 94 155.4 69.9 155.3 46 154C 26.1 152.9 8.1 137.8 10 118"></path><path d="M 310 118L 310 10M 10 10L 10 118M 310.0001 118C 310.0001 137.8822 293.8824 154.0078 274.0001 154.0078L 45.9999 154.0077C 26.1178 154.0077 10 137.8821 10 118"></path></g></g></g><g id="g-root-cp_6_shape-6_3_74w3zjrfb46-stroke" data-item-order="-573992" transform="translate(353, 734)"><g id="cp_6_shape-6_3_74w3zjrfb46-stroke" fill="none" stroke-linecap="round" stroke-linejoin="round" stroke-miterlimit="4" stroke="#f4f4f4" stroke-width="4"><g><path d="M 10 118C 10.1 99.4 9.4 80.9 10 62.3C 10.6 44.9 9.3 27.4 10 10M 310 10C 308.4 28 308.9 46.2 310 64.3C 311.1 82.1 309.2 100.1 310 118M 10 118C 9.3 137.9 26.1 153.3 46 154C 70.2 154.9 94.6 152.4 118.8 154C 143.2 155.6 167.7 152.6 192.1 154C 219.4 155.6 246.7 154 274 154C 293.9 154 308.3 137.8 310 118"></path><path d="M 10 118L 10 10M 310 10L 310 118M 10 118C 10 137.8822 26.1177 154.0078 45.9999 154.0078L 274.0001 154.0077C 293.8823 154.0077 310 137.8977 310.0001 118.0156L 310.0001 118"></path></g></g></g><g id="g-root-tx_initialc_146rde7jrf8jm-stroke" data-item-order="0" transform="translate(71.5, 374)"></g><g id="g-root-tx_managesc_v7dimnjri2v9-stroke" data-item-order="0" transform="translate(449, 350)"></g><g id="g-root-tx_nvccdriv_18i7jwvjri4g4-stroke" data-item-order="0" transform="translate(467, 314)"></g><g id="g-root-tx_sourcepr_18lyefjjrfax5-stroke" data-item-order="0" transform="translate(89.5, 314)"></g><g id="g-root-ic_3_hvx09bjri4g6-stroke" data-item-order="0" transform="translate(509.5, 254)"><g id="ic_3_hvx09bjri4g6-stroke" fill="none" stroke-linecap="round" stroke-linejoin="round" stroke-miterlimit="4" stroke="#f4f4f4" stroke-width="2"><g><path d="M 10.8 44C 13 50.799999 16.6 57 23.799999 57C 31 57 37.200001 51.200001 36.799999 44C 36.400002 36.799999 30.6 33.400002 23.799999 31C 17 28.6 12.2 37 10.8 44M 11.2 41C 14.6 38.599998 19.6 38.400002 23.799999 39C 28 39.599998 32.599998 39 36.400002 41M 11 46C 19.799999 47.400002 22.6 47.799999 20.6 56.599998M 36.599998 46C 28.200001 49 27.799999 47.599998 27 56.599998M 23.200001 44C 23.4 44.200001 23.6 44.599998 23.799999 44.400002C 24 44.400002 24.200001 44.200001 24.200001 44C 24.4 43.799999 24 43.400002 23.799999 43.400002C 23.6 43.599998 23.200001 43.799999 23.200001 44M 41 33.200001C 39.799999 34.799999 40 35.400002 39.200001 37.400002C 41.200001 36.799999 43.200001 37.799999 45.200001 37.400002C 45.599998 38.200001 45.200001 39.400002 45.200001 40.400002C 45 43.599998 48 46.400002 51.200001 46.400002C 52.200001 46.400002 53.200001 46.400002 54.200001 46.400002C 54.400002 46.799999 54.400002 47.400002 54.200001 47.799999M 57.200001 11C 55.799999 11.8 53.599998 11.6 52.799999 13M 43.599998 17C 43.200001 17.4 42.599998 17.200001 42.200001 17.6C 40 20.200001 38.799999 23.799999 40 27.4C 40.200001 28.4 40.799999 29 41.799999 29C 47 29.200001 52.400002 30.799999 57.200001 29C 57 25.200001 57 21.200001 57.200001 17C 52.599998 16.799999 47.799999 18.799999 43.599998 17"></path><path d="M 10.79 43.995998C 10.790001 51.175701 16.610298 56.996002 23.790001 56.996002C 30.969702 56.996002 36.790001 51.175701 36.790001 43.996002C 36.790001 36.816299 30.969702 30.996002 23.790001 30.996002C 16.610298 30.996002 10.790001 36.816299 10.790001 43.996002M 11.138 41C 15.228716 39.692245 19.495369 39.017784 23.790001 39C 28.084631 39.017784 32.351288 39.692245 36.442001 41M 10.944 46C 19.944 47 21.67 47.622002 20.67 56.622002M 36.638 46C 27.638 47 25.91 47.622002 26.91 56.622002M 23.290001 43.995998C 23.290001 44.272141 23.513859 44.495998 23.790001 44.495998C 24.066143 44.495998 24.290001 44.272141 24.290001 43.995998C 24.290001 43.719856 24.066143 43.495998 23.790001 43.495998C 23.513859 43.495998 23.290001 43.719856 23.290001 43.995998M 40.924 33.104C 40.216 34.986 39.992001 35.419998 39.209999 37.374001L 45.209999 37.374001L 45.209999 40.374001C 45.209999 43.68771 47.896294 46.374001 51.210003 46.374001L 54.209999 46.374001L 54.209999 47.874001M 57.209999 11C 55.613037 11.412861 54.09293 12.080059 52.708 12.976M 43.627998 17.098C 43.104736 17.097542 42.602135 17.302174 42.228001 17.667999C 39.765999 20.068001 39.428001 23.639999 39.900002 27.351999C 40.027817 28.350294 40.877556 29.098099 41.884003 29.098L 57.208 29.098L 57.208 17.098Z"></path></g></g></g><g id="g-root-ic_syst_dl3atrjrji0x-stroke" data-item-order="0" transform="translate(146, 500)"><g id="ic_syst_dl3atrjrji0x-stroke" fill="none" stroke-linecap="round" stroke-linejoin="round" stroke-miterlimit="4" stroke="#f4f4f4" stroke-width="2"><g><path d="M 12 11.6C 14 26.4 13.8 41.599998 12 56.599998M 56 11.6C 57 26.4 57.799999 41.599998 56 56.599998M 35 13.4C 35.200001 15 34.799999 16.799999 35 18.4M 35 25.4C 35.599998 27 34.400002 28.799999 35 30.4M 35 37.400002C 35.400002 39 35.200001 40.799999 35 42.400002M 35 49.400002C 35.200001 51.200001 34.599998 52.799999 35 54.400002M 23 12.6C 23 16.4 23.799999 20.4 23 24.200001C 22.6 26.200001 23.6 28.799999 25.4 29.799999C 28.799999 32.599998 28.6 37.799999 25.4 41.200001C 23.799999 42.799999 23.200001 44.799999 23 46.799999C 22.799999 49.599998 23.200001 52.400002 23 55.400002M 10 10M 18 17.6C 19.200001 15.4 20.799999 13.4 23 12.6C 24.6 14.2 27 15.4 28 17.6"></path><path d="M 12 11.5L 12 56.5M 56 11.5L 56 56.5M 35 13.44848L 35 18.448479M 35 25.448479L 35 30.4484M 35 37.448402L 35 42.448399M 35 49.448399L 35 54.448399M 23 12.59692L 23 24.1C 23 26.299999 23.80002 28.299999 25.400021 29.700001C 28.600019 32.900002 28.600019 37.900002 25.400021 41.099998C 23.80002 42.700001 23 44.700001 23 46.700001L 23 55.299999M 10 10M 18 17.5L 23 12.5L 28 17.5"></path></g></g></g><g id="g-root-ic_code_qvav0vjrfa4j-stroke" data-item-order="0" transform="translate(131.5, 254)"><g id="ic_code_qvav0vjrfa4j-stroke" fill="none" stroke-linecap="round" stroke-linejoin="round" stroke-miterlimit="4" stroke="#f4f4f4" stroke-width="2"><g><path d="M 28.4 18.200001C 28.799999 16.799999 28.6 15 28.4 13.6C 28 12.4 29.200001 11.8 30.4 11.6C 36.599998 10.6 43.200001 10.6 49.599998 11.6C 49.799999 11.6 50.599998 11.8 50.799999 12C 52 13.6 54 14.6 55.599998 16C 56 16.4 56.200001 17 56.400002 17.6C 58.799999 25.6 55 34.400002 56.400002 42.599998C 56.400002 43.799999 55.599998 44.599998 54.400002 44.599998C 49.400002 44.599998 44.200001 44.599998 39.400002 44.599998M 10 10M 36.400002 20C 35.599998 21.200001 34.200001 21.799999 33.400002 23C 34.599998 23.6 35.400002 25 36.400002 26M 10 10M 48.400002 20C 49.200001 21.200001 50 22.200001 51.400002 23C 50.400002 24 49.200001 24.799999 48.400002 26M 10 10M 40.400002 27C 41.599998 24 43.200001 21 44.400002 18M 37.200001 56.400002C 36.200001 51 30.200001 48.200001 24.4 47.400002C 18.799999 46.599998 14.4 51.599998 11.6 56.400002M 24.4 29.4C 24.4 27.4 23.799999 25.4 24.4 23.4M 13.2 35.200001C 20.6 34.799999 28 36.400002 35.200001 35.200001M 16 37.400002C 15.2 41.799999 20 46.599998 24.200001 45.400002C 28.799999 44.200001 32.599998 41.799999 32.400002 37.200001C 32.400002 36 33 34.799999 32.400002 33.599998C 30.799999 29.4 28.6 24 24.200001 25.4C 20.200001 26.799999 16.200001 29 16 33.400002C 16 34.799999 16 36.200001 16 37.400002"></path><path d="M 28.300039 18.17502L 28.300039 13.57502C 28.300039 12.37502 29.10004 11.575012 30.299999 11.575012L 49.5 11.575012C 49.900002 11.575012 50.5 11.775012 50.700001 11.975012L 55.5 15.975019C 55.900002 16.375019 56.299999 16.975019 56.299999 17.57502L 56.299999 42.575001C 56.299999 43.775002 55.5 44.575001 54.299999 44.575001L 39.299999 44.575001M 10 10M 36.299999 19.974979L 33.299999 22.974979L 36.299999 25.974979M 10 10M 48.299999 19.974979L 51.299999 22.974979L 48.299999 25.974979M 10 10M 40.299999 26.97504L 44.299999 17.97504M 37.099998 56.424999C 35.299999 51.224998 30.299999 47.424999 24.49996 47.424999C 18.699959 47.424999 13.49996 51.224998 11.699952 56.424999M 24.299999 29.42498L 24.299999 23.42498M 13.2998 35.224998L 35.299801 35.224998M 16.0998 37.424999C 16.299801 41.825001 19.899799 45.424999 24.299801 45.424999C 28.899799 45.424999 32.499802 41.825001 32.499802 37.224998L 32.499802 33.625C 32.499802 29.024981 28.899799 25.42498 24.299801 25.42498C 19.899799 25.42498 16.299801 29.024981 16.0998 33.424999L 16.0998 37.424999Z"></path></g></g></g><g id="g-root-ic_2_1cza07jjrm9zg-stroke" data-item-order="0" transform="translate(494, 500)"><g id="ic_2_1cza07jjrm9zg-stroke" fill="none" stroke-linecap="round" stroke-linejoin="round" stroke-miterlimit="4" stroke="#f4f4f4" stroke-width="2"><g><path d="M 56.599998 51.400002C 57.400002 54 54.200001 56.400002 51.599998 56.400002C 39.799999 56.799999 28.200001 56.599998 16.6 56.400002C 13.8 56.400002 11.8 54.200001 11.6 51.400002C 11.2 48.599998 13.8 45.799999 16.6 46.400002C 27.799999 49 39.799999 46.799999 51.599998 46.400002C 54.200001 46.400002 55.599998 48.799999 56.599998 51.400002M 18 36.200001C 21 35.200001 24.200001 36.400002 27.4 36.200001C 28.6 36 29 37 29.4 38.200001C 30.200001 40.799999 28.6 43.799999 29.4 46.400002C 25 46 20.4 46.799999 16 46.400002C 15.6 43.599998 16.6 40.799999 16 38.200001C 15.8 37 17 35.799999 18 36.200001M 39.599998 36.200001C 42.599998 36.799999 46 35.200001 49 36.200001C 50 36.400002 51.200001 37 51 38.200001C 50 40.799999 50 43.799999 51 46.400002C 46.400002 46 42 46.799999 37.599998 46.400002C 37.799999 43.599998 36.799999 40.799999 37.599998 38.200001C 37.799999 37 38.400002 36 39.599998 36.200001M 18 51.400002C 18.200001 52 18.4 52.200001 19 52.400002C 19.6 52.599998 20.200001 52 20 51.400002C 20 50.799999 19.6 50.200001 19 50.400002C 18.4 50.599998 18 50.799999 18 51.400002M 28 51.400002C 28 52 28.4 52.599998 29 52.400002C 29.6 52.200001 30 52 30 51.400002C 30 50.799999 29.6 50.599998 29 50.400002C 28.4 50.400002 28 50.799999 28 51.400002M 38 51.400002C 38 52 38.599998 52.400002 39 52.400002C 39.599998 52.400002 40 52 40 51.400002C 40.200001 50.799999 39.599998 50.400002 39 50.400002C 38.599998 50.599998 38.200001 50.799999 38 51.400002M 48 51.400002C 47.799999 52 48.599998 52.599998 49 52.400002C 49.599998 52.200001 49.799999 52 50 51.400002C 50.200001 51 49.599998 50.200001 49 50.400002C 48.599998 50.599998 48 50.799999 48 51.400002M 51.400002 25.799999C 46.599998 25.6 41.599998 25.6 36.799999 25.799999C 35 26 32.799999 24.200001 33.400002 22.4C 34 20.6 35 19.6 36.799999 19C 41.400002 17.4 46.799999 17.4 51.400002 19M 48 22.4C 47.799999 24.200001 49.599998 25.6 51.400002 25.799999C 53.200001 26 54.599998 24.200001 54.799999 22.4C 55 20.6 53.200001 19.6 51.400002 19C 49.599998 18.4 48 20.6 48 22.4M 49.799999 11.6C 51.400002 14.2 52 17.4 53.599998 20M 47.400002 19C 45.799999 17 45.400002 14 44 11.6M 27.799999 22.4C 29.6 22.4 31.6 22.6 33.400002 22.4M 21 19C 23.200001 18.4 25.6 19.200001 27.799999 19C 28.4 21.200001 28.4 23.6 27.799999 25.799999C 25.6 26.6 23.200001 25 21 25.799999C 20.4 23.6 20.200001 21.200001 21 19M 24.4 25.799999C 24.799999 27.6 24 29.6 24.4 31.4"></path><path d="M 56.5 51.43C 56.5 54.191425 54.261425 56.43 51.5 56.43L 16.5 56.43C 13.738577 56.43 11.5 54.191425 11.5 51.43C 11.5 48.668575 13.738577 46.43 16.5 46.43L 51.5 46.43C 54.261425 46.43 56.5 48.668575 56.5 51.43ZM 18 36.099998L 27.4 36.099998C 28.50457 36.099998 29.4 36.99543 29.4 38.099998L 29.4 46.431999L 29.4 46.431999L 16 46.431999L 16 46.431999L 16 38.099998C 16 36.99543 16.895432 36.099998 18 36.099998ZM 39.540001 36.099998L 48.939999 36.099998C 50.044571 36.099998 50.939999 36.99543 50.939999 38.099998L 50.939999 46.431999L 50.939999 46.431999L 37.540001 46.431999L 37.540001 46.431999L 37.540001 38.099998C 37.540001 36.99543 38.435432 36.099998 39.540001 36.099998ZM 18 51.43C 18 51.982285 18.447716 52.43 19 52.43C 19.552284 52.43 20 51.982285 20 51.43C 20 50.877716 19.552284 50.43 19 50.43C 18.447716 50.43 18 50.877716 18 51.43M 28 51.43C 28 51.982285 28.447716 52.43 29 52.43C 29.552284 52.43 30 51.982285 30 51.43C 30 50.877716 29.552284 50.43 29 50.43C 28.447716 50.43 28 50.877716 28 51.43M 38.084 51.43C 38.084 51.982285 38.531715 52.43 39.084 52.43C 39.636284 52.43 40.084 51.982285 40.084 51.43C 40.084 50.877716 39.636284 50.43 39.084 50.43C 38.531715 50.43 38.084 50.877716 38.084 51.43M 48.084 51.43C 48.084 51.982285 48.531715 52.43 49.084 52.43C 49.636284 52.43 50.084 51.982285 50.084 51.43C 50.084 50.877716 49.636284 50.43 49.084 50.43C 48.531715 50.43 48.084 50.877716 48.084 51.43M 51.400002 25.799999L 36.765999 25.799999C 34.900009 25.800526 33.387047 24.287989 33.387047 22.422001C 33.387047 20.556011 34.900009 19.043476 36.765999 19.043999L 51.400002 19.043999M 48.026001 22.422001C 48.025475 24.287989 49.53801 25.800949 51.403999 25.800949C 53.269989 25.800949 54.782524 24.287989 54.781998 22.422001C 54.782524 20.556011 53.269989 19.043049 51.403999 19.043049C 49.53801 19.043049 48.025475 20.556011 48.025997 22.422001M 49.716 11.57L 53.655998 19.903999M 47.498001 19.043999L 44.084 11.57M 27.756001 22.422001L 33.386002 22.422001M 21 19.043999L 27.756001 19.043999L 27.756001 25.799999L 21 25.799999ZM 24.378 25.799999L 24.378 31.43"></path></g></g></g><g id="g-root-tx_codesepa_zrkccvjrji1b-stroke" data-item-order="0" transform="translate(80, 560)"></g><g id="g-root-tx_deviceco_dg3i4vjrm9du-stroke" data-item-order="0" transform="translate(446, 560)"></g><g id="g-root-tx_dividesc_qwjt73jrjgg0-stroke" data-item-order="0" transform="translate(74, 596)"></g><g id="g-root-tx_translat_1qa41hrjrmbkb-stroke" data-item-order="0" transform="translate(416, 620)"></g><g id="g-root-tx_optimizi_1ut1x1rjrf8jk-stroke" data-item-order="0" transform="translate(158, 38)"></g><g id="g-root-tx_connects_vcdehbjr41zd-stroke" data-item-order="0" transform="translate(389, 818)"></g><g id="g-root-ic_serv_zk2qhbjr2o07-stroke" data-item-order="0" transform="translate(161, 722)"><g id="ic_serv_zk2qhbjr2o07-stroke" fill="none" stroke-linecap="round" stroke-linejoin="round" stroke-miterlimit="4" stroke="#f4f4f4" stroke-width="2"><g><path d="M 35 36C 35.599998 38.799999 40 41 46 41C 52 41 57.799999 38.599998 57 36C 56.200001 33.400002 52 31.200001 46 31C 40 30.799999 36 33.400002 35 36M 57 44C 56 46.599998 52 50.200001 46 49C 40 47.799999 35.200001 46.799999 35 44M 35 36C 35.599998 41.200001 34.400002 46.799999 35 52C 35.400002 54.799999 40 57.799999 46 57C 52 56.200001 57.400002 54.799999 57 52C 56.200001 46.799999 56.799999 41.400002 57 36M 27.200001 19.200001C 26.4 21 25.799999 22.6 27.200001 24.200001C 28.200001 25.6 29.799999 26.6 31 28C 32 29.6 34.400002 29.200001 36 28C 37.400002 26.6 37.400002 24.4 36 23C 34.799999 21.6 33.799999 19.799999 32.200001 19.200001C 30.4 18.4 28.799999 18.200001 27.200001 19.200001M 27.200001 19.200001C 25.799999 19.799999 24.200001 19.6 22.799999 19.799999C 21.799999 18.4 20.6 16.799999 19 16C 20.200001 15.4 21.6 15.2 22.799999 15C 23.200001 13.6 24.200001 12.4 24 11C 25 12.4 26.799999 13.2 27.799999 14.8C 27.6 16.200001 27.799999 17.799999 27.200001 19.200001M 19.200001 33.200001C 17.4 34 18 36.599998 19.200001 38.200001C 20.200001 39.599998 21.4 41 23 42C 24 42.599998 25.200001 43.200001 26.4 43C 27.6 42.599998 29 41.599998 29 40.400002C 29 39.200001 28.799999 37.799999 28 37C 26.6 35.799999 25.4 34.400002 24.200001 33.200001C 22.799999 31.799999 21 32.200001 19.200001 33.200001M 19.200001 33.200001C 17.799999 33.599998 16.200001 34 14.8 33.799999C 13.4 32.799999 12.2 31.4 11 30C 12.2 29.6 13.8 29.6 15 28.799999C 15.8 27.799999 15.6 26.200001 16 25C 17.200001 26.200001 18.799999 27.4 19.799999 28.799999C 19.799999 30.200001 19 31.799999 19.200001 33.200001"></path><path d="M 35 36C 35 38.761425 39.92487 41 46 41C 52.075134 41 57 38.761425 57 36C 57 33.238579 52.075134 31 46 31C 39.92487 31 35 33.238579 35 36M 57 44C 57 46.764 52.074001 49 46 49C 39.926003 49 35 46.764 35 44M 35 36L 35 52C 35 54.764 39.926003 57 46 57C 52.074001 57 57 54.764 57 52L 57 36M 27.16 19.17C 25.771923 20.558596 25.771923 22.809402 27.16 24.197998L 30.931999 27.968C 32.320351 29.356438 34.571461 29.356251 35.959579 27.967581C 37.347698 26.578909 37.346992 24.327797 35.958 22.939999L 32.188 19.17C 30.799402 17.781925 28.548595 17.781925 27.16 19.169998ZM 27.16 19.17L 22.762001 19.798L 18.992001 16.028L 22.889999 14.9L 24.018 11L 27.790001 14.77L 27.16 19.17ZM 19.17 33.169998C 17.781925 34.558594 17.781925 36.809402 19.169998 38.197998L 22.939999 41.968002C 23.832148 42.895401 25.155735 43.26844 26.400869 42.943413C 27.646006 42.618382 28.618383 41.646004 28.943413 40.400871C 29.268442 39.155731 28.895403 37.832146 27.967999 36.939999L 24.200001 33.169998C 22.811174 31.78059 20.558825 31.78059 19.169998 33.169998ZM 19.17 33.169998L 14.77 33.798L 11 30.028L 14.9 28.9L 16.028 25L 19.798 28.77L 19.17 33.169998Z"></path></g></g></g><g id="g-root-ic_chai_hrjrtbjr5eyy-stroke" data-item-order="0" transform="translate(479, 722)"><g id="ic_chai_hrjrtbjr5eyy-stroke" fill="none" stroke-linecap="round" stroke-linejoin="round" stroke-miterlimit="4" stroke="#f4f4f4" stroke-width="2"><g><path d="M 10 10M 56.599998 11.6C 53 13.2 51 17.200001 48.200001 20M 10 10M 20 48.200001C 16.799999 50.599998 15 54.799999 11.6 56.599998M 10 10M 40 28C 35.599998 31.6 33 37.400002 28 40M 50.599998 17.4C 50.599998 17.4 54 21 50.599998 26.4C 49.400002 28.4 47.599998 30.4 45.400002 31.6C 45.400002 31.6 40.599998 36.400002 36.400002 31.6C 32.200001 26.799999 33.400002 28.200001 36.400002 22.6C 37.599998 20.4 39.599998 18.799999 41.599998 17.4C 41.599998 17.4 45 14.4 50.599998 17.4M 31.6 36.400002C 31.6 36.400002 35.200001 40.200001 31.6 45.400002C 30.200001 47.400002 28.6 49.400002 26.4 50.599998C 26.4 50.599998 20.799999 56 17.4 50.599998C 14 45.200001 14.2 47 17.4 41.599998C 18.6 39.400002 20.799999 38.200001 22.6 36.400002C 22.6 36.400002 26.6 32.400002 31.6 36.400002"></path><path d="M 10 10M 56.5 11.5L 48.099998 19.9M 10 10M 19.9 48.099998L 11.5 56.5M 10 10M 40 28L 28 40M 50.600029 17.400028C 50.600029 17.400028 55.100056 21.900055 50.600029 26.400084L 45.399963 31.600145C 45.399963 31.600145 40.899937 36.100174 36.39991 31.600145C 31.899881 27.100119 31.899881 27.100119 36.39991 22.60009L 41.599972 17.400028C 41.599972 17.400028 46.099998 12.9 50.600029 17.400028M 31.600027 36.400028C 31.600027 36.400028 36.100056 40.900055 31.600027 45.400082L 26.399963 50.600147C 26.399963 50.600147 21.899937 55.100174 17.39991 50.600147C 12.899881 46.100117 12.899881 46.100117 17.39991 41.60009L 22.599972 36.400028C 22.599972 36.400028 27.1 31.9 31.600027 36.400028"></path></g></g></g><g id="g-root-tx_fatbinar_1um6s9bjr2n7x-stroke" data-item-order="0" transform="translate(77, 782)"></g><g id="g-root-tx_linking_18ntwunjr40eg-stroke" data-item-order="0" transform="translate(461, 782)"></g><g id="g-root-tx_combines_1cvj8unjr2mfa-stroke" data-item-order="0" transform="translate(65, 818)"></g></g></g><path id="w18itbprkv11ca" d="M65.283 12.757a.35.35 0 0 0 .584.157l5.203-5.141-6.183 3.523.396 1.461zm-2.216-11.7a.35.35 0 0 0-.522.305v3.111l3.276-1.868-2.754-1.548zm3.728 2.105l-4.25 2.421v2.445l6.391-3.644-2.141-1.222zm4.708 3.303a.35.35 0 0 0 0-.609l-1.592-.9-7.365 4.199v1.782a.35.35 0 0 0 .523.305l8.435-4.777z M44.542 2.513c0-.433.355-.783.792-.783s.792.35.792.783-.355.783-.792.783-.792-.35-.792-.783zm59.171 0c0-.433.355-.783.792-.783s.792.35.792.783-.355.783-.792.783-.792-.35-.792-.783zm-85.951 7.636h-1.27v-.487c-.276.201-.864.609-1.881.609-1.202 0-2.274-.794-2.137-2.078.118-1.106 1.153-1.584 1.848-1.727l2.17-.345c0-.539-.29-.956-1.064-1.006s-1.21.305-1.571 1.017l-1.124-.605c1.218-2.631 5.029-1.764 5.029.414v4.207zm-1.27-2.86c.006.396-.062 1.112-.819 1.59-.587.37-1.841.299-1.903-.395-.049-.555.461-.791.906-.898l1.816-.297zm72.662 2.86h-1.27v-.487c-.276.201-.864.609-1.881.609-1.202 0-2.274-.794-2.137-2.078.118-1.106 1.153-1.584 1.848-1.727l2.17-.345c0-.539-.29-.956-1.064-1.006s-1.21.305-1.571 1.017l-1.124-.605c1.218-2.631 5.029-1.764 5.029.414v4.207zm-1.27-2.86c.006.396-.062 1.112-.82 1.59-.587.37-1.841.299-1.903-.395-.049-.555.461-.791.906-.898l1.816-.297zM99.096 10.149H97.85v-8.45h1.246v4.895l2.68-2.559h1.738l-2.633 2.535 2.715 3.578h-1.556l-2.077-2.707-.867.844v1.863zm6.053-6.114h-1.255v6.113h1.255V4.035zm-59.2 0h-1.255v6.113h1.255V4.035zm5.584 6.113V1.697h1.255v2.695c.361-.346 1-.485 1.47-.485 1.452 0 2.477 1.082 2.457 2.448v3.792h-1.27v-3.68c0-.408-.214-1.339-1.315-1.339-.968 0-1.342.756-1.342 1.339v3.681h-1.255zm-4.76-4.894V4.039h.621a.45.45 0 0 0 .45-.45v-.855h1.251v1.305h1.309v1.215h-1.309v3.109c0 .293.105.664.648.664.365 0 .531-.035.736-.07v1.137s-.361.113-.857.113c-1.398 0-1.777-1.051-1.777-1.788V5.254h-1.071zM36.528 4.039h-1.394l2.191 6.106h1.125l1.234-3.918 1.238 3.918h1.129l2.188-6.106h-1.383l-1.359 3.93-1.256-3.93h-1.124l-1.242 3.957-1.348-3.957zM26.212 7.141c-.02 1.566 1.187 3.129 3.223 3.129 1.566 0 2.383-.918 2.734-1.719L31.172 8c-.315.399-.801 1.094-1.738 1.094-1.145 0-1.825-.781-1.891-1.52h4.625c.074-.284.148-.995-.03-1.559-.336-1.064-1.221-2.102-2.839-2.102s-3.088 1.152-3.088 3.227zm1.363-.75h3.348c-.055-.43-.566-1.301-1.623-1.301a1.79 1.79 0 0 0-1.725 1.301zm-8.758.75c.038 1.758 1.277 3.133 3.145 3.133 1.074 0 1.723-.477 1.961-.672v.547h1.242V1.703h-1.258v2.888c-.414-.36-1.062-.68-1.93-.68-1.91 0-3.198 1.473-3.16 3.23zm1.309-.08c0 1.119.723 1.978 1.836 1.978a1.88 1.88 0 0 0 1.94-1.904c0-1.371-1.011-1.99-1.972-1.99s-1.805.798-1.805 1.916zm76.683-.028C96.771 5.275 95.532 3.9 93.664 3.9c-1.074 0-1.723.477-1.961.672v-.547h-1.242v8.22h1.258V9.583c.414.36 1.063.68 1.93.68 1.91 0 3.198-1.473 3.16-3.23zm-1.309.08c0-1.119-.723-1.978-1.836-1.978a1.88 1.88 0 0 0-1.94 1.904c0 1.371 1.011 1.99 1.972 1.99S95.5 8.231 95.5 7.113zM106.441 10.173V4.036h1.254v.382c.361-.346 1-.485 1.47-.485 1.452 0 2.477 1.082 2.457 2.448v3.792h-1.27V6.492c0-.408-.214-1.339-1.315-1.339-.969 0-1.342.756-1.342 1.339v3.681h-1.254zm-30.383-.021V1.824h1.084l4.215 5.777V1.824h1.32v8.328h-1.094l-4.207-5.796v5.796h-1.319zM5.24 10.149H4V2.377h1.014l2.664 3.597 2.654-3.592h1.03v7.766h-1.256V4.762L7.678 8.068 5.24 4.742v5.407z" transform="translate(14, 902)" fill="#ababab88" stroke="none"></path></svg>