<?xml version="1.0" encoding="utf-8" standalone="yes"?>
<!DOCTYPE svg PUBLIC "-//W3C//DTD SVG 1.1//EN" "http://www.w3.org/Graphics/SVG/1.1/DTD/svg11.dtd">
<svg width="816" height="516" viewBox="0 0 816 516" style="fill:none;stroke:none;fill-rule:evenodd;clip-rule:evenodd;stroke-linecap:round;stroke-linejoin:round;stroke-miterlimit:1.5;" version="1.1" xmlns="http://www.w3.org/2000/svg" xmlns:xlink="http://www.w3.org/1999/xlink"><style class="text-font-style fontImports" data-font-family="Arial"></style><g id="items" style="isolation: isolate"><g id="blend" style="mix-blend-mode: normal"><g id="g-root-sy_4_cu_v4v3dbidk5qe-fill" data-item-order="-194394" transform="translate(14, 98)"><g id="sy_4_cu_v4v3dbidk5qe-fill" stroke="none" fill="#5d83c0"><g><path d="M 82 370C 82 210.942 210.942 82 370 82L 514 82L 550 46L 514 10L 370 10C 171.177 10 10 171.177 10 370L 82 370Z"></path></g></g></g><g id="g-root-sy_3_cu_m9uk7jidk3db-fill" data-item-order="-194390" transform="translate(86, 170)"><g id="sy_3_cu_m9uk7jidk3db-fill" stroke="none" fill="#4e8aeb"><g><path d="M 298 82C 178.706 82 82 178.706 82 298L 10 298C 10 138.942 138.942 10 298 10L 442 10L 478 46L 442 82L 298 82Z"></path></g></g></g><g id="g-root-sy_2_cu_hu1233idk45k-fill" data-item-order="-194386" transform="translate(158, 242)"><g id="sy_2_cu_hu1233idk45k-fill" stroke="none" fill="#68a1ff"><g><path d="M 226 82C 146.471 82 82 146.471 82 226L 10 226C 10 106.7065 106.7065 10 226 10L 370 10L 406 46L 370 82L 226 82Z"></path></g></g></g><g id="g-root-sy_1_cu_4ikjpridk5qh-fill" data-item-order="-194382" transform="translate(230, 314)"><g id="sy_1_cu_4ikjpridk5qh-fill" stroke="none" fill="#bfd7ff"><g><path d="M 154 82C 114.235 82 82 114.235 82 154L 10 154C 10 74.471 74.471 10 154 10L 298 10L 334 46L 298 82L 154 82Z"></path></g></g></g><g id="g-root-tx_enhancin_3diofidk3cy-fill" data-item-order="0" transform="translate(212, 26)"><g id="tx_enhancin_3diofidk3cy-fill" stroke="none" fill="#f4f4f4"><g><text style="font: bold 25px Arial, Helvetica, sans-serif; white-space: pre;" font-weight="bold" font-size="25px" font-family="Arial, Helvetica, sans-serif"><tspan x="15.66" y="42" dominant-baseline="ideographic">Standard Algorithms in CUDA </tspan></text></g></g></g><g id="g-root-tx_reductio_hvwhcfidk35y-fill" data-item-order="0" transform="translate(362, 110)"><g id="tx_reductio_hvwhcfidk35y-fill" stroke="none" fill="#2c2c2c"><g><text style="font: 20px Arial, Helvetica, sans-serif; white-space: pre;" font-size="20px" font-family="Arial, Helvetica, sans-serif"><tspan x="12" y="33" dominant-baseline="ideographic">Reduction </tspan><tspan x="12" y="57" dominant-baseline="ideographic">Algorithms</tspan></text></g></g></g><g id="g-root-tx_methodsf_zofg0fidk2yy-fill" data-item-order="0" transform="translate(566, 116)"><g id="tx_methodsf_zofg0fidk2yy-fill" stroke="none" fill="#f4f4f4"><g><text style="font: 15px Arial, Helvetica, sans-serif; white-space: pre;" font-size="15px" font-family="Arial, Helvetica, sans-serif"><tspan x="12" y="27" dominant-baseline="ideographic">Methods for reducing data sets </tspan><tspan x="12" y="45" dominant-baseline="ideographic">by combining elements.</tspan></text></g></g></g><g id="g-root-tx_matrixop_v6qimnidk4qt-fill" data-item-order="0" transform="translate(362, 182)"><g id="tx_matrixop_v6qimnidk4qt-fill" stroke="none" fill="#2c2c2c"><g><text style="font: 20px Arial, Helvetica, sans-serif; white-space: pre;" font-size="20px" font-family="Arial, Helvetica, sans-serif"><tspan x="12" y="33" dominant-baseline="ideographic">Matrix </tspan><tspan x="12" y="57" dominant-baseline="ideographic">Operations</tspan></text></g></g></g><g id="g-root-tx_operatio_1cz9hanidk4jt-fill" data-item-order="0" transform="translate(566.11474609375, 188)"><g id="tx_operatio_1cz9hanidk4jt-fill" stroke="none" fill="#f4f4f4"><g><text style="font: 15px Arial, Helvetica, sans-serif; white-space: pre;" font-size="15px" font-family="Arial, Helvetica, sans-serif"><tspan x="12" y="27" dominant-baseline="ideographic">Operations on matrices </tspan><tspan x="12" y="45" dominant-baseline="ideographic">optimized for parallel execution.</tspan></text></g></g></g><g id="g-root-tx_parallel_18i70zzidk35w-fill" data-item-order="0" transform="translate(362, 254)"><g id="tx_parallel_18i70zzidk35w-fill" stroke="none" fill="#2c2c2c"><g><text style="font: 20px Arial, Helvetica, sans-serif; white-space: pre;" font-size="20px" font-family="Arial, Helvetica, sans-serif"><tspan x="12" y="33" dominant-baseline="ideographic">Parallel Search </tspan><tspan x="12" y="57" dominant-baseline="ideographic">Algorithms</tspan></text></g></g></g><g id="g-root-tx_techniqu_1qapznzidk2yw-fill" data-item-order="0" transform="translate(566, 260)"><g id="tx_techniqu_1qapznzidk2yw-fill" stroke="none" fill="#f4f4f4"><g><text style="font: 15px Arial, Helvetica, sans-serif; white-space: pre;" font-size="15px" font-family="Arial, Helvetica, sans-serif"><tspan x="12" y="27" dominant-baseline="ideographic">Techniques for searching data </tspan><tspan x="12" y="45" dominant-baseline="ideographic">sets concurrently.</tspan></text></g></g></g><g id="g-root-tx_parallel_1lt12a7idk4qr-fill" data-item-order="0" transform="translate(362, 326)"><g id="tx_parallel_1lt12a7idk4qr-fill" stroke="none" fill="#2c2c2c"><g><text style="font: 20px Arial, Helvetica, sans-serif; white-space: pre;" font-size="20px" font-family="Arial, Helvetica, sans-serif"><tspan x="12" y="33" dominant-baseline="ideographic">Parallel Sorting </tspan><tspan x="12" y="57" dominant-baseline="ideographic">Algorithms</tspan></text></g></g></g><g id="g-root-tx_algorith_4kfyz3idk4qv-fill" data-item-order="0" transform="translate(566, 332)"><g id="tx_algorith_4kfyz3idk4qv-fill" stroke="none" fill="#f4f4f4"><g><text style="font: 15px Arial, Helvetica, sans-serif; white-space: pre;" font-size="15px" font-family="Arial, Helvetica, sans-serif"><tspan x="12" y="27" dominant-baseline="ideographic">Algorithms that sort data in </tspan><tspan x="12" y="45" dominant-baseline="ideographic">parallel to improve efficiency.</tspan></text></g></g></g><g id="g-root-sy_4_cu_v4v3dbidk5qe-stroke" data-item-order="-194394" transform="translate(14, 98)"><g id="sy_4_cu_v4v3dbidk5qe-stroke" fill="none" stroke-linecap="butt" stroke-linejoin="miter" stroke-miterlimit="4" stroke="#5d83c0" stroke-width="1"><g><path d="M 82 370C 82 210.942 210.942 82 370 82L 514 82L 550 46L 514 10L 370 10C 171.1775 10 10 171.1775 10 370L 82 370Z"></path></g></g></g><g id="g-root-sy_3_cu_m9uk7jidk3db-stroke" data-item-order="-194390" transform="translate(86, 170)"><g id="sy_3_cu_m9uk7jidk3db-stroke" fill="none" stroke-linecap="butt" stroke-linejoin="miter" stroke-miterlimit="4" stroke="#4e8aeb" stroke-width="1"><g><path d="M 82 298C 82 178.7065 178.7065 82 298 82L 442 82L 478 46L 442 10L 298 10C 138.942 10 10 138.942 10 298L 82 298Z"></path></g></g></g><g id="g-root-sy_2_cu_hu1233idk45k-stroke" data-item-order="-194386" transform="translate(158, 242)"><g id="sy_2_cu_hu1233idk45k-stroke" fill="none" stroke-linecap="butt" stroke-linejoin="miter" stroke-miterlimit="4" stroke="#68a1ff" stroke-width="1"><g><path d="M 82 226C 82 146.471 146.471 82 226 82L 370 82L 406 46L 370 10L 226 10C 106.7065 10 10 106.7065 10 226L 82 226Z"></path></g></g></g><g id="g-root-sy_1_cu_4ikjpridk5qh-stroke" data-item-order="-194382" transform="translate(230, 314)"><g id="sy_1_cu_4ikjpridk5qh-stroke" fill="none" stroke-linecap="butt" stroke-linejoin="miter" stroke-miterlimit="4" stroke="#bfd7ff" stroke-width="1"><g><path d="M 82 154C 82 114.2355 114.2355 82 154 82L 298 82L 334 46L 298 10L 154 10C 74.471 10 10 74.471 10 154L 82 154Z"></path></g></g></g><g id="g-root-tx_enhancin_3diofidk3cy-stroke" data-item-order="0" transform="translate(212, 26)"></g><g id="g-root-tx_reductio_hvwhcfidk35y-stroke" data-item-order="0" transform="translate(362, 110)"></g><g id="g-root-tx_methodsf_zofg0fidk2yy-stroke" data-item-order="0" transform="translate(566, 116)"></g><g id="g-root-tx_matrixop_v6qimnidk4qt-stroke" data-item-order="0" transform="translate(362, 182)"></g><g id="g-root-tx_operatio_1cz9hanidk4jt-stroke" data-item-order="0" transform="translate(566.11474609375, 188)"></g><g id="g-root-tx_parallel_18i70zzidk35w-stroke" data-item-order="0" transform="translate(362, 254)"></g><g id="g-root-tx_techniqu_1qapznzidk2yw-stroke" data-item-order="0" transform="translate(566, 260)"></g><g id="g-root-tx_parallel_1lt12a7idk4qr-stroke" data-item-order="0" transform="translate(362, 326)"></g><g id="g-root-tx_algorith_4kfyz3idk4qv-stroke" data-item-order="0" transform="translate(566, 332)"></g></g></g><path id="w94mz0vjhbhtw" d="M65.283 12.757a.35.35 0 0 0 .584.157l5.203-5.141-6.183 3.523.396 1.461zm-2.216-11.7a.35.35 0 0 0-.522.305v3.111l3.276-1.868-2.754-1.548zm3.728 2.105l-4.25 2.421v2.445l6.391-3.644-2.141-1.222zm4.708 3.303a.35.35 0 0 0 0-.609l-1.592-.9-7.365 4.199v1.782a.35.35 0 0 0 .523.305l8.435-4.777z M44.542 2.513c0-.433.355-.783.792-.783s.792.35.792.783-.355.783-.792.783-.792-.35-.792-.783zm59.171 0c0-.433.355-.783.792-.783s.792.35.792.783-.355.783-.792.783-.792-.35-.792-.783zm-85.951 7.636h-1.27v-.487c-.276.201-.864.609-1.881.609-1.202 0-2.274-.794-2.137-2.078.118-1.106 1.153-1.584 1.848-1.727l2.17-.345c0-.539-.29-.956-1.064-1.006s-1.21.305-1.571 1.017l-1.124-.605c1.218-2.631 5.029-1.764 5.029.414v4.207zm-1.27-2.86c.006.396-.062 1.112-.819 1.59-.587.37-1.841.299-1.903-.395-.049-.555.461-.791.906-.898l1.816-.297zm72.662 2.86h-1.27v-.487c-.276.201-.864.609-1.881.609-1.202 0-2.274-.794-2.137-2.078.118-1.106 1.153-1.584 1.848-1.727l2.17-.345c0-.539-.29-.956-1.064-1.006s-1.21.305-1.571 1.017l-1.124-.605c1.218-2.631 5.029-1.764 5.029.414v4.207zm-1.27-2.86c.006.396-.062 1.112-.82 1.59-.587.37-1.841.299-1.903-.395-.049-.555.461-.791.906-.898l1.816-.297zM99.096 10.149H97.85v-8.45h1.246v4.895l2.68-2.559h1.738l-2.633 2.535 2.715 3.578h-1.556l-2.077-2.707-.867.844v1.863zm6.053-6.114h-1.255v6.113h1.255V4.035zm-59.2 0h-1.255v6.113h1.255V4.035zm5.584 6.113V1.697h1.255v2.695c.361-.346 1-.485 1.47-.485 1.452 0 2.477 1.082 2.457 2.448v3.792h-1.27v-3.68c0-.408-.214-1.339-1.315-1.339-.968 0-1.342.756-1.342 1.339v3.681h-1.255zm-4.76-4.894V4.039h.621a.45.45 0 0 0 .45-.45v-.855h1.251v1.305h1.309v1.215h-1.309v3.109c0 .293.105.664.648.664.365 0 .531-.035.736-.07v1.137s-.361.113-.857.113c-1.398 0-1.777-1.051-1.777-1.788V5.254h-1.071zM36.528 4.039h-1.394l2.191 6.106h1.125l1.234-3.918 1.238 3.918h1.129l2.188-6.106h-1.383l-1.359 3.93-1.256-3.93h-1.124l-1.242 3.957-1.348-3.957zM26.212 7.141c-.02 1.566 1.187 3.129 3.223 3.129 1.566 0 2.383-.918 2.734-1.719L31.172 8c-.315.399-.801 1.094-1.738 1.094-1.145 0-1.825-.781-1.891-1.52h4.625c.074-.284.148-.995-.03-1.559-.336-1.064-1.221-2.102-2.839-2.102s-3.088 1.152-3.088 3.227zm1.363-.75h3.348c-.055-.43-.566-1.301-1.623-1.301a1.79 1.79 0 0 0-1.725 1.301zm-8.758.75c.038 1.758 1.277 3.133 3.145 3.133 1.074 0 1.723-.477 1.961-.672v.547h1.242V1.703h-1.258v2.888c-.414-.36-1.062-.68-1.93-.68-1.91 0-3.198 1.473-3.16 3.23zm1.309-.08c0 1.119.723 1.978 1.836 1.978a1.88 1.88 0 0 0 1.94-1.904c0-1.371-1.011-1.99-1.972-1.99s-1.805.798-1.805 1.916zm76.683-.028C96.771 5.275 95.532 3.9 93.664 3.9c-1.074 0-1.723.477-1.961.672v-.547h-1.242v8.22h1.258V9.583c.414.36 1.063.68 1.93.68 1.91 0 3.198-1.473 3.16-3.23zm-1.309.08c0-1.119-.723-1.978-1.836-1.978a1.88 1.88 0 0 0-1.94 1.904c0 1.371 1.011 1.99 1.972 1.99S95.5 8.231 95.5 7.113zM106.441 10.173V4.036h1.254v.382c.361-.346 1-.485 1.47-.485 1.452 0 2.477 1.082 2.457 2.448v3.792h-1.27V6.492c0-.408-.214-1.339-1.315-1.339-.969 0-1.342.756-1.342 1.339v3.681h-1.254zm-30.383-.021V1.824h1.084l4.215 5.777V1.824h1.32v8.328h-1.094l-4.207-5.796v5.796h-1.319zM5.24 10.149H4V2.377h1.014l2.664 3.597 2.654-3.592h1.03v7.766h-1.256V4.762L7.678 8.068 5.24 4.742v5.407z" transform="translate(680, 482)" fill="#ababab88" stroke="none"></path></svg>